<svg width="61" height="40" viewBox="0 0 61 40" fill="none" xmlns="http://www.w3.org/2000/svg">
<g filter="url(#filter0_d_1703_22)">
<rect width="51" height="30" transform="translate(5 3)" fill="white"/>
<path d="M18.9199 22.2051C20.8887 22.2051 22.1484 21.1973 22.1484 19.5801V19.5742C22.1484 18.3203 21.4219 17.6055 19.6465 17.2246L18.7266 17.0195C17.6309 16.7852 17.1855 16.375 17.1855 15.748V15.7422C17.1855 14.9453 17.918 14.4824 18.9082 14.4824C19.9336 14.4766 20.5957 14.9805 20.707 15.6719L20.7188 15.748H21.9902L21.9844 15.666C21.8906 14.3535 20.7188 13.3398 18.9258 13.3398C17.1328 13.3398 15.8672 14.3477 15.8613 15.8066V15.8125C15.8613 17.0605 16.5996 17.8574 18.3164 18.2207L19.2422 18.4199C20.3613 18.6602 20.8184 19.082 20.8184 19.7324V19.7383C20.8184 20.5234 20.0508 21.0625 18.9727 21.0625C17.8418 21.0625 17.0273 20.5703 16.957 19.8027L16.9512 19.7383H15.6621L15.668 19.8145C15.7852 21.2383 17.0098 22.2051 18.9199 22.2051ZM23.2266 22H24.6035L25.3711 19.7148H28.6055L29.3672 22H30.75L27.6973 13.5449H26.2793L23.2266 22ZM26.9355 15.0273H27.0352L28.2539 18.6602H25.7227L26.9355 15.0273ZM32.2207 22H37.4941V20.8691H33.5332V13.5449H32.2207V22ZM39.1582 22H44.5254V20.8691H40.4707V18.2383H44.3086V17.1484H40.4707V14.6758H44.5254V13.5449H39.1582V22Z" fill="#161C24"/>
</g>
<defs>
<filter id="filter0_d_1703_22" x="0" y="0" width="61" height="40" filterUnits="userSpaceOnUse" color-interpolation-filters="sRGB">
<feFlood flood-opacity="0" result="BackgroundImageFix"/>
<feColorMatrix in="SourceAlpha" type="matrix" values="0 0 0 0 0 0 0 0 0 0 0 0 0 0 0 0 0 0 127 0" result="hardAlpha"/>
<feOffset dy="2"/>
<feGaussianBlur stdDeviation="2.5"/>
<feComposite in2="hardAlpha" operator="out"/>
<feColorMatrix type="matrix" values="0 0 0 0 0 0 0 0 0 0 0 0 0 0 0 0 0 0 0.03 0"/>
<feBlend mode="normal" in2="BackgroundImageFix" result="effect1_dropShadow_1703_22"/>
<feBlend mode="normal" in="SourceGraphic" in2="effect1_dropShadow_1703_22" result="shape"/>
</filter>
</defs>
</svg>
