<svg width="100" height="36" viewBox="0 0 100 36" fill="none" xmlns="http://www.w3.org/2000/svg">
<g filter="url(#filter0_d_1703_4)">
<rect width="90" height="26" transform="translate(5 3)" fill="white"/>
<g clip-path="url(#clip0_1703_4)">
<path d="M24 13.5H14C13.862 13.5 13.75 13.612 13.75 13.75V20.75C13.75 20.888 13.862 21 14 21H24C24.138 21 24.25 20.888 24.25 20.75V13.75C24.25 13.612 24.138 13.5 24 13.5ZM23.75 20.5H14.25V14H23.75V20.5H23.75Z" fill="#4295E4"/>
<path d="M24.5001 11.5H13.5C13.362 11.5 13.25 11.612 13.25 11.75V13.75C13.25 13.888 13.362 14 13.5 14H24.5C24.638 14 24.75 13.888 24.75 13.75V11.75C24.75 11.612 24.6381 11.5 24.5001 11.5ZM24.25 13.5H13.75V12H24.25V13.5Z" fill="#4295E4"/>
<path d="M18.9999 11.5C18.8619 11.5 18.7499 11.612 18.7499 11.75V20.75C18.7499 20.888 18.8619 21 18.9999 21C19.1379 21 19.2499 20.888 19.2499 20.75V11.75C19.2499 11.612 19.1379 11.5 18.9999 11.5Z" fill="#4295E4"/>
<path d="M19.2555 11.691C18.9985 10.4855 17.4655 9.192 16.444 9.01901C16.381 9.00649 16.3165 9 16.25 9C15.6985 9 15.25 9.4485 15.25 10C15.25 10.2305 15.3305 10.4555 15.4765 10.634C15.4785 10.6355 15.48 10.638 15.4815 10.64C16.224 11.5885 18.6955 11.952 18.9765 11.9905C18.988 11.992 18.9995 11.993 19.0105 11.993C19.08 11.993 19.146 11.9645 19.194 11.913C19.2495 11.8535 19.2725 11.7705 19.2555 11.691ZM15.8685 10.3225C15.864 10.316 15.859 10.3105 15.854 10.305C15.786 10.2175 15.75 10.112 15.75 10C15.75 9.72401 15.9745 9.50002 16.25 9.50002C16.283 9.50002 16.3155 9.50351 16.354 9.51052C17.1035 9.63752 18.235 10.5445 18.6415 11.4295C17.771 11.269 16.3015 10.8945 15.8685 10.3225Z" fill="#4295E4"/>
<path d="M21.7499 9C21.6834 9 21.6189 9.00649 21.5629 9.01751C20.5349 9.192 19.0019 10.4855 18.7449 11.691C18.7279 11.7705 18.7509 11.8535 18.8064 11.913C18.8539 11.964 18.9204 11.993 18.9894 11.993C19.0004 11.993 19.0119 11.992 19.0229 11.991C19.3039 11.9525 21.7754 11.589 22.5179 10.6405C22.5199 10.6385 22.5214 10.636 22.5234 10.634C22.6694 10.4555 22.7499 10.2305 22.7499 10C22.7499 9.4485 22.3014 9 21.7499 9ZM22.1459 10.3055C22.1409 10.311 22.1359 10.3165 22.1314 10.323C21.6989 10.894 20.2294 11.2695 19.3584 11.43C19.7654 10.544 20.8974 9.6375 21.6529 9.50951C21.6844 9.50351 21.7169 9.50002 21.7499 9.50002C22.0254 9.50002 22.2499 9.72401 22.2499 10C22.2499 10.112 22.2139 10.217 22.1459 10.3055Z" fill="#4295E4"/>
</g>
<path d="M42.7695 20V11.5449H36.1367V20H37.1914V12.4941H41.7148V20H42.7695ZM47.5098 20.1113C49.3086 20.1113 50.4219 18.8691 50.4219 16.8477V16.8359C50.4219 14.8086 49.3086 13.5723 47.5098 13.5723C45.7109 13.5723 44.5977 14.8086 44.5977 16.8359V16.8477C44.5977 18.8691 45.7109 20.1113 47.5098 20.1113ZM47.5098 19.209C46.3145 19.209 45.6406 18.3359 45.6406 16.8477V16.8359C45.6406 15.3418 46.3145 14.4746 47.5098 14.4746C48.7051 14.4746 49.3789 15.3418 49.3789 16.8359V16.8477C49.3789 18.3359 48.7051 19.209 47.5098 19.209ZM52.2031 21.6699V20H57.1426V21.6699H58.0918V19.1562H57.084V13.6836H52.7773L52.5312 17.2051C52.4727 18.0547 52.2441 18.8516 51.7812 19.1562H51.2539V21.6699H52.2031ZM56.0645 19.1562H52.959V19.0625C53.2578 18.6699 53.4219 17.9961 53.4805 17.2285L53.6797 14.5273H56.0645V19.1562ZM61.1562 20.1113C62.0059 20.1113 62.668 19.7422 63.0664 19.0684H63.1602V20H64.1797V15.6758C64.1797 14.3633 63.3184 13.5723 61.7773 13.5723C60.4297 13.5723 59.4688 14.2402 59.3047 15.2305L59.2988 15.2656H60.3184L60.3242 15.248C60.4883 14.7559 60.9863 14.4746 61.7422 14.4746C62.6855 14.4746 63.1602 14.8965 63.1602 15.6758V16.25L61.3496 16.3613C59.8789 16.4492 59.0469 17.0996 59.0469 18.2246V18.2363C59.0469 19.3848 59.9551 20.1113 61.1562 20.1113ZM60.0898 18.2129V18.2012C60.0898 17.5742 60.5117 17.2344 61.4727 17.1758L63.1602 17.0703V17.6445C63.1602 18.5469 62.4043 19.2266 61.3672 19.2266C60.6348 19.2266 60.0898 18.8516 60.0898 18.2129ZM66.1602 22.1094H67.1797V19.0039H67.2734C67.6191 19.6777 68.375 20.1113 69.2422 20.1113C70.8477 20.1113 71.8906 18.8281 71.8906 16.8477V16.8359C71.8906 14.8672 70.8418 13.5723 69.2422 13.5723C68.3633 13.5723 67.6602 13.9883 67.2734 14.6914H67.1797V13.6836H66.1602V22.1094ZM69.0078 19.209C67.8594 19.209 67.1562 18.3066 67.1562 16.8477V16.8359C67.1562 15.377 67.8594 14.4746 69.0078 14.4746C70.1621 14.4746 70.8477 15.3652 70.8477 16.8359V16.8477C70.8477 18.3184 70.1621 19.209 69.0078 19.209ZM76.1973 20.1113C77.9961 20.1113 79.1094 18.8691 79.1094 16.8477V16.8359C79.1094 14.8086 77.9961 13.5723 76.1973 13.5723C74.3984 13.5723 73.2852 14.8086 73.2852 16.8359V16.8477C73.2852 18.8691 74.3984 20.1113 76.1973 20.1113ZM76.1973 19.209C75.002 19.209 74.3281 18.3359 74.3281 16.8477V16.8359C74.3281 15.3418 75.002 14.4746 76.1973 14.4746C77.3926 14.4746 78.0664 15.3418 78.0664 16.8359V16.8477C78.0664 18.3359 77.3926 19.209 76.1973 19.209ZM82.1445 17.123L84.6172 20H85.9238L82.9707 16.6602L85.8125 13.6836H84.5879L82.1445 16.3262H81.8223V13.6836H80.8027V20H81.8223V17.123H82.1445Z" fill="#161C24"/>
</g>
<defs>
<filter id="filter0_d_1703_4" x="0" y="0" width="100" height="36" filterUnits="userSpaceOnUse" color-interpolation-filters="sRGB">
<feFlood flood-opacity="0" result="BackgroundImageFix"/>
<feColorMatrix in="SourceAlpha" type="matrix" values="0 0 0 0 0 0 0 0 0 0 0 0 0 0 0 0 0 0 127 0" result="hardAlpha"/>
<feOffset dy="2"/>
<feGaussianBlur stdDeviation="2.5"/>
<feComposite in2="hardAlpha" operator="out"/>
<feColorMatrix type="matrix" values="0 0 0 0 0 0 0 0 0 0 0 0 0 0 0 0 0 0 0.03 0"/>
<feBlend mode="normal" in2="BackgroundImageFix" result="effect1_dropShadow_1703_4"/>
<feBlend mode="normal" in="SourceGraphic" in2="effect1_dropShadow_1703_4" result="shape"/>
</filter>
<clipPath id="clip0_1703_4">
<rect width="12" height="12" fill="white" transform="translate(13 9)"/>
</clipPath>
</defs>
</svg>
