<svg width="546" height="40" viewBox="0 0 546 40" fill="none" xmlns="http://www.w3.org/2000/svg">
<rect width="41" height="40" fill="white"/>
<path d="M19.9289 27.0711L12.8579 20L19.9289 12.9289" stroke="#C4CDD5" stroke-width="1.5"/>
<rect x="61" width="40" height="40" rx="2" fill="#4295E4"/>
<path d="M81.3047 26H82.7109V14.7266H81.3125L78.3125 16.8828V18.3672L81.1797 16.2891H81.3047V26Z" fill="white"/>
<rect width="40" height="40" transform="translate(109)" fill="white"/>
<path d="M125.43 26H132.727V24.7344H127.383V24.6094L129.945 21.9609C131.984 19.8594 132.539 18.9219 132.539 17.6328V17.6172C132.539 15.7969 131.031 14.4609 129.062 14.4609C126.906 14.4609 125.359 15.8984 125.352 17.8984L125.367 17.9062L126.711 17.9141L126.719 17.8984C126.719 16.5703 127.617 15.6875 128.969 15.6875C130.297 15.6875 131.102 16.5781 131.102 17.7656V17.7812C131.102 18.7656 130.68 19.3516 129.242 20.9062L125.43 25.0312V26Z" fill="#181818"/>
<rect width="40" height="40" transform="translate(157)" fill="white"/>
<path d="M177.078 26.1875C179.336 26.1875 180.992 24.7969 180.992 22.9141V22.8984C180.992 21.2969 179.875 20.2734 178.234 20.1328V20.1016C179.641 19.8047 180.625 18.8516 180.625 17.4609V17.4453C180.625 15.7344 179.211 14.5391 177.062 14.5391C174.953 14.5391 173.5 15.7656 173.32 17.6016L173.312 17.6797H174.664L174.672 17.6016C174.789 16.4609 175.734 15.7578 177.062 15.7578C178.438 15.7578 179.211 16.4375 179.211 17.6172V17.6328C179.211 18.7578 178.273 19.5859 176.93 19.5859H175.578V20.7734H176.992C178.57 20.7734 179.562 21.5469 179.562 22.9297V22.9453C179.562 24.1406 178.555 24.9688 177.078 24.9688C175.578 24.9688 174.555 24.2031 174.445 23.0938L174.438 23.0156H173.086L173.094 23.1094C173.242 24.8906 174.75 26.1875 177.078 26.1875Z" fill="#181818"/>
<rect width="40" height="40" transform="translate(205)" fill="white"/>
<path d="M226.258 26H227.633V23.6641H229.234V22.4062H227.633V14.7266H225.594C224.016 17.0781 222.289 19.8281 220.766 22.3828V23.6641H226.258V26ZM222.203 22.4141V22.3203C223.43 20.25 224.906 17.9219 226.172 16.0312H226.266V22.4141H222.203Z" fill="#181818"/>
<rect width="40" height="40" transform="translate(253)" fill="white"/>
<path d="M273.016 26.2656C275.305 26.2656 276.938 24.6797 276.938 22.4062V22.3906C276.938 20.2109 275.414 18.625 273.297 18.625C272.273 18.625 271.391 19.0391 270.891 19.7969H270.766L271.148 15.9844H276.312V14.7266H270.039L269.445 21.2031H270.664C270.805 20.9375 270.984 20.7188 271.18 20.5312C271.664 20.0703 272.305 19.8438 273.055 19.8438C274.516 19.8438 275.562 20.9141 275.562 22.4141V22.4297C275.562 23.9531 274.531 25.0234 273.031 25.0234C271.711 25.0234 270.734 24.1641 270.602 23.0859L270.594 23.0234H269.242L269.25 23.1094C269.414 24.9141 270.914 26.2656 273.016 26.2656Z" fill="#181818"/>
<rect width="40" height="40" transform="translate(301)" fill="white"/>
<path d="M321.148 26.2656C323.422 26.2656 325.094 24.6328 325.094 22.3828V22.3672C325.094 20.2031 323.516 18.5938 321.398 18.5938C319.875 18.5938 318.812 19.4141 318.398 20.3359H318.25C318.25 20.25 318.25 20.1562 318.258 20.0703C318.344 17.7188 319.18 15.7188 321.227 15.7188C322.367 15.7188 323.156 16.3047 323.5 17.25L323.531 17.3359H324.945L324.922 17.2344C324.539 15.5703 323.133 14.4609 321.242 14.4609C318.508 14.4609 316.906 16.7109 316.906 20.5547V20.5703C316.906 24.8125 319.086 26.2656 321.148 26.2656ZM318.586 22.3672V22.3594C318.586 20.8906 319.695 19.8203 321.156 19.8203C322.617 19.8203 323.68 20.8984 323.68 22.3984V22.4141C323.68 23.875 322.547 25.0234 321.133 25.0234C319.703 25.0234 318.586 23.8516 318.586 22.3672Z" fill="#181818"/>
<rect width="40" height="40" transform="translate(349)" fill="white"/>
<path d="M366.172 26H367.648L372.664 16.0312V14.7266H365.203V15.9844H371.234V16.0938L366.172 26Z" fill="#181818"/>
<rect width="40" height="40" transform="translate(397)" fill="white"/>
<path d="M412.25 26.0781C412.812 26.0781 413.266 25.6172 413.266 25.0625C413.266 24.5 412.812 24.0469 412.25 24.0469C411.695 24.0469 411.234 24.5 411.234 25.0625C411.234 25.6172 411.695 26.0781 412.25 26.0781ZM417 26.0781C417.562 26.0781 418.016 25.6172 418.016 25.0625C418.016 24.5 417.562 24.0469 417 24.0469C416.445 24.0469 415.984 24.5 415.984 25.0625C415.984 25.6172 416.445 26.0781 417 26.0781ZM421.75 26.0781C422.312 26.0781 422.766 25.6172 422.766 25.0625C422.766 24.5 422.312 24.0469 421.75 24.0469C421.195 24.0469 420.734 24.5 420.734 25.0625C420.734 25.6172 421.195 26.0781 421.75 26.0781Z" fill="#181818"/>
<rect width="40" height="40" transform="translate(445)" fill="white"/>
<path d="M460.359 26H461.766V14.7266H460.367L457.367 16.8828V18.3672L460.234 16.2891H460.359V26ZM468.727 26.2656C471.016 26.2656 472.648 24.6797 472.648 22.4062V22.3906C472.648 20.2109 471.125 18.625 469.008 18.625C467.984 18.625 467.102 19.0391 466.602 19.7969H466.477L466.859 15.9844H472.023V14.7266H465.75L465.156 21.2031H466.375C466.516 20.9375 466.695 20.7188 466.891 20.5312C467.375 20.0703 468.016 19.8438 468.766 19.8438C470.227 19.8438 471.273 20.9141 471.273 22.4141V22.4297C471.273 23.9531 470.242 25.0234 468.742 25.0234C467.422 25.0234 466.445 24.1641 466.312 23.0859L466.305 23.0234H464.953L464.961 23.1094C465.125 24.9141 466.625 26.2656 468.727 26.2656Z" fill="#181818"/>
<rect width="41" height="40" transform="matrix(-1 0 0 1 546 0)" fill="white"/>
<path d="M525.071 27.0711L532.142 20L525.071 12.9289" stroke="#161C24" stroke-width="1.5"/>
</svg>
