<svg width="182" height="130" viewBox="0 0 182 130" fill="none" xmlns="http://www.w3.org/2000/svg">
<path d="M1.67871 20H3.64746V14.3838H10.1602V20H12.1201V7.31738H10.1602V12.6787H3.64746V7.31738H1.67871V20ZM17.877 20.1582C19.1426 20.1582 20.1445 19.6133 20.707 18.6465H20.8564V20H22.7461V13.4697C22.7461 11.4658 21.3926 10.2705 18.9932 10.2705C16.8223 10.2705 15.3193 11.3164 15.0908 12.8809L15.082 12.9424H16.9189L16.9277 12.9072C17.1562 12.2305 17.8506 11.8438 18.9053 11.8438C20.1973 11.8438 20.8564 12.4238 20.8564 13.4697V14.3135L18.2725 14.4629C15.9961 14.6035 14.7129 15.5967 14.7129 17.3018V17.3193C14.7129 19.0508 16.0576 20.1582 17.877 20.1582ZM16.6113 17.2402V17.2227C16.6113 16.3613 17.209 15.8867 18.5273 15.8076L20.8564 15.6582V16.4756C20.8564 17.7061 19.8105 18.6377 18.3867 18.6377C17.3584 18.6377 16.6113 18.1191 16.6113 17.2402ZM25.6025 20H37.8633V10.4551H35.9561V18.4795H32.6865V10.4551H30.7793V18.4795H27.5098V10.4551H25.6025V20ZM44.9473 20H47.0127L48.1641 16.5723H53.0156L54.1582 20H56.2324L51.6533 7.31738H49.5264L44.9473 20ZM50.5107 9.54102H50.6602L52.4883 14.9902H48.6914L50.5107 9.54102ZM58.9307 22.5049V20H66.041V22.5049H67.79V18.4795H66.2959V10.4551H59.4053L59.0537 15.5967C58.9658 16.8799 58.6494 18.0488 57.9463 18.4795H57.1729V22.5049H58.9307ZM64.3975 18.4795H60.0381V18.3301C60.4688 17.7412 60.6973 16.7744 60.7852 15.6758L61.0488 11.9756H64.3975V18.4795ZM69.7148 23.1816H71.6221V18.4883H71.7627C72.2725 19.5166 73.3887 20.1582 74.6982 20.1582C77.124 20.1582 78.6533 18.2598 78.6533 15.2363V15.2188C78.6533 12.2129 77.1064 10.2881 74.6982 10.2881C73.3623 10.2881 72.3164 10.9121 71.7627 11.958H71.6221V10.4551H69.7148V23.1816ZM74.1621 18.5322C72.5713 18.5322 71.5869 17.2754 71.5869 15.2363V15.2188C71.5869 13.1797 72.5713 11.9229 74.1621 11.9229C75.7529 11.9229 76.7109 13.1621 76.7109 15.2188V15.2363C76.7109 17.2842 75.7529 18.5322 74.1621 18.5322ZM85.1309 20.1846C87.5742 20.1846 88.8926 18.7783 89.209 17.5215L89.2266 17.4424L87.3896 17.4512L87.3545 17.5215C87.126 18.0137 86.3965 18.6201 85.1748 18.6201C83.6016 18.6201 82.5996 17.5566 82.5645 15.7285H89.332V15.0605C89.332 12.1953 87.6973 10.2705 85.0342 10.2705C82.3711 10.2705 80.6484 12.2656 80.6484 15.2451V15.2539C80.6484 18.2773 82.3359 20.1846 85.1309 20.1846ZM85.043 11.835C86.335 11.835 87.293 12.6611 87.4424 14.3662H82.5908C82.7578 12.7227 83.7422 11.835 85.043 11.835ZM95.792 20.1846C98.1562 20.1846 99.5186 18.9102 99.8613 17.0557L99.8789 16.9766H98.0508L98.0332 17.0205C97.7256 18.0488 96.9873 18.5938 95.792 18.5938C94.2188 18.5938 93.2432 17.3105 93.2432 15.2012V15.1836C93.2432 13.127 94.2012 11.8613 95.792 11.8613C97.0576 11.8613 97.8311 12.5645 98.042 13.5049L98.0508 13.5312L99.8789 13.5225V13.4785C99.6152 11.624 98.1826 10.2705 95.7832 10.2705C92.9971 10.2705 91.3008 12.1602 91.3008 15.1836V15.2012C91.3008 18.2861 93.0059 20.1846 95.792 20.1846Z" fill="white"/>
<path d="M1.52344 71H2.59375V66.75H5.52344C7.67188 66.75 9.14062 65.3281 9.14062 63.2344V63.2188C9.14062 61.125 7.67188 59.7266 5.52344 59.7266H1.52344V71ZM5.27344 60.6797C7.00781 60.6797 8.05469 61.6406 8.05469 63.2266V63.2422C8.05469 64.8359 7.00781 65.7969 5.27344 65.7969H2.59375V60.6797H5.27344ZM14.6875 71.1406C17.0391 71.1406 18.5156 69.4766 18.5156 66.7969V66.7812C18.5156 64.1016 17.0391 62.4453 14.6875 62.4453C12.3359 62.4453 10.8672 64.1016 10.8672 66.7812V66.7969C10.8672 69.4766 12.3359 71.1406 14.6875 71.1406ZM14.6875 70.2188C12.9531 70.2188 11.9219 68.9219 11.9219 66.7969V66.7812C11.9219 64.6562 12.9531 63.3672 14.6875 63.3672C16.4219 63.3672 17.4531 64.6562 17.4531 66.7812V66.7969C17.4531 68.9219 16.4219 70.2188 14.6875 70.2188ZM24.2578 71.1406C26.1797 71.1406 27.3516 70.1172 27.6797 68.6328L27.6953 68.5703L26.6641 68.5781L26.6484 68.6172C26.3516 69.6328 25.4922 70.2188 24.25 70.2188C22.5859 70.2188 21.5156 68.8672 21.5156 66.7734V66.7578C21.5156 64.6875 22.5781 63.3672 24.25 63.3672C25.5391 63.3672 26.4141 64.0781 26.6641 65.0469L26.6719 65.0703L27.6953 65.0625V65.0312C27.4375 63.5547 26.1797 62.4453 24.25 62.4453C21.9297 62.4453 20.4609 64.1328 20.4609 66.7578V66.7734C20.4609 69.4375 21.9375 71.1406 24.2578 71.1406ZM33.3672 71.1406C35.2891 71.1406 36.4609 70.1172 36.7891 68.6328L36.8047 68.5703L35.7734 68.5781L35.7578 68.6172C35.4609 69.6328 34.6016 70.2188 33.3594 70.2188C31.6953 70.2188 30.625 68.8672 30.625 66.7734V66.7578C30.625 64.6875 31.6875 63.3672 33.3594 63.3672C34.6484 63.3672 35.5234 64.0781 35.7734 65.0469L35.7812 65.0703L36.8047 65.0625V65.0312C36.5469 63.5547 35.2891 62.4453 33.3594 62.4453C31.0391 62.4453 29.5703 64.1328 29.5703 66.7578V66.7734C29.5703 69.4375 31.0469 71.1406 33.3672 71.1406ZM39.0938 71H40.1328L44.7734 64.2344H44.8828V71H45.9141V62.5859H44.8828L40.2344 69.3516H40.1328V62.5859H39.0938V71ZM53.3359 71H54.3672V62.5859H51.5C49.6406 62.5859 48.4531 63.6016 48.4531 65.2578V65.2734C48.4531 66.5 49.25 67.3828 50.5781 67.6484L48.1172 71H49.3438L51.6562 67.8203H53.3359V71ZM51.5 66.9531C50.2734 66.9531 49.5078 66.2578 49.5078 65.25V65.2344C49.5078 64.1328 50.2656 63.4531 51.5 63.4531H53.3359V66.9531H51.5ZM56.7891 73.7266H57.5703L58.6953 69.5703H57.5L56.7891 73.7266ZM1.52344 97H2.59375V92.75H5.52344C7.67188 92.75 9.14062 91.3281 9.14062 89.2344V89.2188C9.14062 87.125 7.67188 85.7266 5.52344 85.7266H1.52344V97ZM5.27344 86.6797C7.00781 86.6797 8.05469 87.6406 8.05469 89.2266V89.2422C8.05469 90.8359 7.00781 91.7969 5.27344 91.7969H2.59375V86.6797H5.27344ZM14.6875 97.1406C17.0391 97.1406 18.5156 95.4766 18.5156 92.7969V92.7812C18.5156 90.1016 17.0391 88.4453 14.6875 88.4453C12.3359 88.4453 10.8672 90.1016 10.8672 92.7812V92.7969C10.8672 95.4766 12.3359 97.1406 14.6875 97.1406ZM14.6875 96.2188C12.9531 96.2188 11.9219 94.9219 11.9219 92.7969V92.7812C11.9219 90.6562 12.9531 89.3672 14.6875 89.3672C16.4219 89.3672 17.4531 90.6562 17.4531 92.7812V92.7969C17.4531 94.9219 16.4219 96.2188 14.6875 96.2188ZM24.2578 97.1406C26.1797 97.1406 27.3516 96.1172 27.6797 94.6328L27.6953 94.5703L26.6641 94.5781L26.6484 94.6172C26.3516 95.6328 25.4922 96.2188 24.25 96.2188C22.5859 96.2188 21.5156 94.8672 21.5156 92.7734V92.7578C21.5156 90.6875 22.5781 89.3672 24.25 89.3672C25.5391 89.3672 26.4141 90.0781 26.6641 91.0469L26.6719 91.0703L27.6953 91.0625V91.0312C27.4375 89.5547 26.1797 88.4453 24.25 88.4453C21.9297 88.4453 20.4609 90.1328 20.4609 92.7578V92.7734C20.4609 95.4375 21.9375 97.1406 24.2578 97.1406ZM35.6406 88.5859H28.8672V89.4531H31.7344V97H32.7734V89.4531H35.6406V88.5859ZM40.9688 97.1406C43.3203 97.1406 44.7969 95.4766 44.7969 92.7969V92.7812C44.7969 90.1016 43.3203 88.4453 40.9688 88.4453C38.6172 88.4453 37.1484 90.1016 37.1484 92.7812V92.7969C37.1484 95.4766 38.6172 97.1406 40.9688 97.1406ZM40.9688 96.2188C39.2344 96.2188 38.2031 94.9219 38.2031 92.7969V92.7812C38.2031 90.6562 39.2344 89.3672 40.9688 89.3672C42.7031 89.3672 43.7344 90.6562 43.7344 92.7812V92.7969C43.7344 94.9219 42.7031 96.2188 40.9688 96.2188ZM47.1562 97H50.5625C52.4062 97 53.4688 96.1016 53.4688 94.6172V94.6016C53.4688 93.5234 52.6641 92.8281 51.5859 92.6875V92.5938C52.4375 92.4219 53.0625 91.6484 53.0625 90.7344V90.7188C53.0625 89.4219 52.125 88.5859 50.5312 88.5859H47.1562V97ZM48.1953 92.2578V89.4531H50.3984C51.4766 89.4531 52.0312 90 52.0312 90.8203V90.8359C52.0312 91.7344 51.4141 92.2578 50.2422 92.2578H48.1953ZM48.1953 96.1328V93.1328H50.3203C51.6641 93.1328 52.4141 93.5938 52.4141 94.5859V94.6016C52.4141 95.5938 51.7734 96.1328 50.5234 96.1328H48.1953ZM55.6094 92.9375H60.8203V91.9688H55.6094V92.9375ZM69.1016 97H70.1406V88.5859H69.1016V92.1953H64.4609V88.5859H63.4219V97H64.4609V93.0625H69.1016V97ZM75.25 97.1406C76.4922 97.1406 77.5 96.5547 78 95.5547H78.0938V97H79.1328V91.25C79.1328 89.4766 77.9844 88.4453 76.0156 88.4453C74.2734 88.4453 73 89.3047 72.7812 90.6484L72.7734 90.6797H73.8125L73.8203 90.6641C74.0391 89.8281 74.8438 89.3672 75.9844 89.3672C77.3438 89.3672 78.0938 90.0234 78.0938 91.2578V92.0469L75.4688 92.2188C73.5234 92.3516 72.4375 93.2031 72.4375 94.6641V94.6797C72.4375 96.1797 73.625 97.1406 75.25 97.1406ZM73.4922 94.6641V94.6484C73.4922 93.6953 74.1797 93.1562 75.6094 93.0625L78.0938 92.8906V93.8672C78.0938 95.2031 76.9531 96.2344 75.4453 96.2344C74.3125 96.2344 73.4922 95.625 73.4922 94.6641ZM81.6875 92.9375H86.8984V91.9688H81.6875V92.9375ZM89 99.2266V97H97.7969V99.2266H98.7969V96.0312H97.3672V85.7266H90.5078L90.0703 92.75C89.9609 94.5391 89.6406 95.6094 88.8203 96.0312H88V99.2266H89ZM91.0859 92.7891L91.4766 86.6953H96.2969V96.0312H90.2031V95.9531C90.7578 95.3438 90.9844 94.4453 91.0859 92.7891ZM104.172 97.1406C106.523 97.1406 108 95.4766 108 92.7969V92.7812C108 90.1016 106.523 88.4453 104.172 88.4453C101.82 88.4453 100.352 90.1016 100.352 92.7812V92.7969C100.352 95.4766 101.82 97.1406 104.172 97.1406ZM104.172 96.2188C102.438 96.2188 101.406 94.9219 101.406 92.7969V92.7812C101.406 90.6562 102.438 89.3672 104.172 89.3672C105.906 89.3672 106.938 90.6562 106.938 92.7812V92.7969C106.938 94.9219 105.906 96.2188 104.172 96.2188ZM116.039 97H117.078V88.5859H116.039V92.1953H111.398V88.5859H110.359V97H111.398V93.0625H116.039V97ZM120.445 99.9062C121.797 99.9062 122.438 99.3828 123.055 97.7344L126.453 88.5859H125.359L122.828 95.8828H122.719L120.18 88.5859H119.07L122.227 97.0547L122.016 97.6875C121.672 98.6953 121.195 99.0391 120.414 99.0391C120.273 99.0391 120.109 99.0391 119.984 99.0156V99.875C120.133 99.8984 120.305 99.9062 120.445 99.9062ZM133.352 99.9062C134.703 99.9062 135.344 99.3828 135.961 97.7344L139.359 88.5859H138.266L135.734 95.8828H135.625L133.086 88.5859H131.977L135.133 97.0547L134.922 97.6875C134.578 98.6953 134.102 99.0391 133.32 99.0391C133.18 99.0391 133.016 99.0391 132.891 99.0156V99.875C133.039 99.8984 133.211 99.9062 133.352 99.9062ZM142.727 93.6562L143.039 89.4531H146.453V97H147.492V88.5859H142.109L141.758 93.5703C141.664 94.9922 141.344 96.1172 140.508 96.1172C140.32 96.1172 140.125 96.0859 140.047 96.0625V97C140.148 97.0391 140.352 97.0781 140.602 97.0781C141.969 97.0781 142.562 95.8359 142.727 93.6562ZM151.211 97.0625C151.672 97.0625 152.031 96.6953 152.031 96.2422C152.031 95.7812 151.672 95.4141 151.211 95.4141C150.75 95.4141 150.383 95.7812 150.383 96.2422C150.383 96.6953 150.75 97.0625 151.211 97.0625ZM1.52344 123H5.44531C7.58594 123 9.05469 121.664 9.0625 119.688V119.672C9.0625 117.695 7.58594 116.344 5.4375 116.344H2.59375V112.695H8.00781V111.727H1.52344V123ZM2.59375 122.031V117.312H5.19531C6.92969 117.312 7.96875 118.195 7.96875 119.672V119.688C7.96094 121.172 6.92969 122.031 5.19531 122.031H2.59375ZM14.8125 123.141C17.1641 123.141 18.6406 121.477 18.6406 118.797V118.781C18.6406 116.102 17.1641 114.445 14.8125 114.445C12.4609 114.445 10.9922 116.102 10.9922 118.781V118.797C10.9922 121.477 12.4609 123.141 14.8125 123.141ZM14.8125 122.219C13.0781 122.219 12.0469 120.922 12.0469 118.797V118.781C12.0469 116.656 13.0781 115.367 14.8125 115.367C16.5469 115.367 17.5781 116.656 17.5781 118.781V118.797C17.5781 120.922 16.5469 122.219 14.8125 122.219ZM26.3359 115.453V114.586H21V123H22.0391V115.453H26.3359ZM30.4688 123.141C31.7109 123.141 32.7188 122.555 33.2188 121.555H33.3125V123H34.3516V117.25C34.3516 115.477 33.2031 114.445 31.2344 114.445C29.4922 114.445 28.2188 115.305 28 116.648L27.9922 116.68H29.0312L29.0391 116.664C29.2578 115.828 30.0625 115.367 31.2031 115.367C32.5625 115.367 33.3125 116.023 33.3125 117.258V118.047L30.6875 118.219C28.7422 118.352 27.6562 119.203 27.6562 120.664V120.68C27.6562 122.18 28.8438 123.141 30.4688 123.141ZM28.7109 120.664V120.648C28.7109 119.695 29.3984 119.156 30.8281 119.062L33.3125 118.891V119.867C33.3125 121.203 32.1719 122.234 30.6641 122.234C29.5312 122.234 28.7109 121.625 28.7109 120.664ZM43.3047 123V114.586H42.2656V118.273C41.8516 118.703 41.0938 118.984 40.0234 118.984C38.6719 118.984 37.9766 118.148 37.9766 116.883V114.586H36.9375V116.891C36.9375 118.688 37.9922 119.906 40.0234 119.906C40.9922 119.906 41.7031 119.688 42.1641 119.336H42.2656V123H43.3047ZM49.4922 123.141C51.3516 123.141 52.5781 122.125 52.9062 120.984L52.9297 120.922H51.8906L51.8594 120.977C51.5859 121.633 50.7422 122.211 49.5156 122.211C47.8438 122.211 46.7656 121.031 46.7344 119.062H53.0547V118.625C53.0547 116.133 51.6641 114.445 49.4062 114.445C47.1484 114.445 45.6797 116.18 45.6797 118.805V118.82C45.6797 121.461 47.1328 123.141 49.4922 123.141ZM49.4062 115.367C50.8516 115.367 51.8906 116.352 52.0078 118.219H46.7422C46.875 116.398 47.9531 115.367 49.4062 115.367ZM55.4219 123H58.8281C60.6719 123 61.7344 122.102 61.7344 120.617V120.602C61.7344 119.523 60.9297 118.828 59.8516 118.688V118.594C60.7031 118.422 61.3281 117.648 61.3281 116.734V116.719C61.3281 115.422 60.3906 114.586 58.7969 114.586H55.4219V123ZM56.4609 118.258V115.453H58.6641C59.7422 115.453 60.2969 116 60.2969 116.82V116.836C60.2969 117.734 59.6797 118.258 58.5078 118.258H56.4609ZM56.4609 122.133V119.133H58.5859C59.9297 119.133 60.6797 119.594 60.6797 120.586V120.602C60.6797 121.594 60.0391 122.133 58.7891 122.133H56.4609ZM66.4219 123.141C67.6641 123.141 68.6719 122.555 69.1719 121.555H69.2656V123H70.3047V117.25C70.3047 115.477 69.1562 114.445 67.1875 114.445C65.4453 114.445 64.1719 115.305 63.9531 116.648L63.9453 116.68H64.9844L64.9922 116.664C65.2109 115.828 66.0156 115.367 67.1562 115.367C68.5156 115.367 69.2656 116.023 69.2656 117.258V118.047L66.6406 118.219C64.6953 118.352 63.6094 119.203 63.6094 120.664V120.68C63.6094 122.18 64.7969 123.141 66.4219 123.141ZM64.6641 120.664V120.648C64.6641 119.695 65.3516 119.156 66.7812 119.062L69.2656 118.891V119.867C69.2656 121.203 68.125 122.234 66.6172 122.234C65.4844 122.234 64.6641 121.625 64.6641 120.664ZM72.6797 125.727H73.4609L74.5859 121.57H73.3906L72.6797 125.727ZM84.6094 123H85.6719V111.727H84.6172L81.6016 113.812V114.945L84.5156 112.922H84.6094V123ZM92.9141 123.234C95.1406 123.234 96.7891 121.594 96.7891 119.375V119.359C96.7891 117.211 95.2031 115.602 93.0781 115.602C91.4766 115.602 90.2656 116.539 89.8672 117.672H89.7578C89.7578 117.562 89.7578 117.445 89.7578 117.336C89.8203 114.656 90.7812 112.453 92.9766 112.453C94.2578 112.453 95.1875 113.172 95.5 114.242L95.5234 114.328H96.6016L96.5781 114.227C96.2344 112.625 94.8672 111.492 92.9922 111.492C90.3359 111.492 88.7344 113.789 88.7344 117.664V117.68C88.7344 121.641 90.7344 123.234 92.9141 123.234ZM90.0547 119.305V119.297C90.0547 117.75 91.3281 116.539 92.9141 116.539C94.5234 116.539 95.7188 117.75 95.7188 119.383V119.398C95.7188 121.016 94.4766 122.281 92.8984 122.281C91.2734 122.281 90.0547 120.953 90.0547 119.305Z" fill="white"/>
</svg>
