<svg width="127" height="22" viewBox="0 0 127 22" fill="none" xmlns="http://www.w3.org/2000/svg">
<rect width="20" height="22" fill="white"/>
<path d="M14 7L6 15M14 15L6 7L14 15Z" stroke="#E44286" stroke-linecap="round" stroke-linejoin="round"/>
<path d="M29.3262 15.5H30.5566V11.0088H35.9707V15.5H37.2012V5.63574H35.9707V9.90137H30.5566V5.63574H29.3262V15.5ZM42.7109 15.6299C44.4473 15.6299 45.5 14.6455 45.7529 13.6475L45.7666 13.5928H44.5771L44.5498 13.6543C44.3516 14.0986 43.7363 14.5703 42.7383 14.5703C41.4258 14.5703 40.585 13.6816 40.5508 12.1572H45.8555V11.6924C45.8555 9.49121 44.6387 8.00098 42.6357 8.00098C40.6328 8.00098 39.334 9.55957 39.334 11.8359V11.8428C39.334 14.1533 40.6055 15.6299 42.7109 15.6299ZM42.6289 9.06055C43.7158 9.06055 44.5225 9.75098 44.6455 11.207H40.5713C40.7012 9.80566 41.5352 9.06055 42.6289 9.06055ZM52.623 8.13086H46.6621V9.11523H49.0479V15.5H50.2373V9.11523H52.623V8.13086ZM58.2764 15.5H61.4141C63 15.5 63.9365 14.666 63.9365 13.3877V13.374C63.9365 12.5195 63.3418 11.8633 62.4053 11.7334V11.624C63.0957 11.4805 63.6084 10.79 63.6084 10.0586V10.0449C63.6084 8.88965 62.7949 8.13086 61.4004 8.13086H58.2764V15.5ZM59.4658 11.248V9.11523H61.2295C62.0566 9.11523 62.4258 9.53906 62.4258 10.168V10.1816C62.4258 10.8789 61.9951 11.248 61.0381 11.248H59.4658ZM59.4658 14.5156V12.2324H61.1406C62.2002 12.2324 62.7266 12.5742 62.7266 13.3535V13.3672C62.7266 14.1055 62.2686 14.5156 61.3662 14.5156H59.4658ZM74.7236 15.5H75.9131V8.13086H74.7236V11.1797H71.0732V8.13086H69.8838V15.5H71.0732V12.1641H74.7236V15.5ZM80.2812 15.6299C81.2725 15.6299 82.0449 15.1992 82.5098 14.4131H82.6191V15.5H83.8086V10.4551C83.8086 8.92383 82.8037 8.00098 81.0059 8.00098C79.4336 8.00098 78.3125 8.78027 78.1211 9.93555L78.1143 9.97656H79.3037L79.3105 9.95605C79.502 9.38184 80.083 9.05371 80.9648 9.05371C82.0654 9.05371 82.6191 9.5459 82.6191 10.4551V11.125L80.5068 11.2549C78.791 11.3574 77.8203 12.1162 77.8203 13.4287V13.4424C77.8203 14.7822 78.8799 15.6299 80.2812 15.6299ZM79.0371 13.415V13.4014C79.0371 12.6699 79.5293 12.2734 80.6504 12.2051L82.6191 12.082V12.752C82.6191 13.8047 81.7373 14.5977 80.5273 14.5977C79.6729 14.5977 79.0371 14.1602 79.0371 13.415ZM87.8418 12.6152L88.1152 9.11523H90.6787V15.5H91.8682V8.13086H87.0488L86.7344 12.5195C86.6592 13.6133 86.3857 14.4678 85.709 14.4678C85.5312 14.4678 85.3467 14.4404 85.2852 14.4199V15.4932C85.3809 15.5273 85.5723 15.5684 85.8252 15.5684C87.0557 15.5684 87.6846 14.6455 87.8418 12.6152ZM94.2061 15.5H95.3955L99.0391 10.0039H99.1484V15.5H100.338V8.13086H99.1484L95.5049 13.627H95.3955V8.13086H94.2061V15.5ZM108.302 15.5V8.13086H107.112V11.2412C106.805 11.583 106.169 11.8223 105.246 11.8223C104.241 11.8223 103.735 11.207 103.735 10.2363V8.13086H102.546V10.2363C102.546 11.8086 103.469 12.875 105.246 12.875C106.039 12.875 106.606 12.7109 107.003 12.4307H107.112V15.5H108.302ZM110.64 15.5H111.829L115.473 10.0039H115.582V15.5H116.771V8.13086H115.582L111.938 13.627H111.829V8.13086H110.64V15.5ZM119.116 15.5H120.306L123.949 10.0039H124.059V15.5H125.248V8.13086H124.059L120.415 13.627H120.306V8.13086H119.116V15.5Z" fill="#454F5B"/>
</svg>
