<svg width="99" height="24" viewBox="0 0 99 24" fill="none" xmlns="http://www.w3.org/2000/svg">
<rect width="20" height="20" transform="translate(0 2)" fill="white"/>
<path d="M6 12L9 15L14 9" stroke="#24C56E" stroke-linecap="round" stroke-linejoin="round"/>
<path d="M29.3262 17H33.1748C35.2734 17 36.5176 15.9678 36.5176 14.2383V14.2246C36.5176 12.9258 35.6631 12.0029 34.3164 11.832V11.7227C35.2666 11.5518 36.0186 10.6221 36.0186 9.60352V9.58984C36.0186 8.08594 34.9111 7.13574 33.0996 7.13574H29.3262V17ZM32.8398 8.22266C34.0635 8.22266 34.7744 8.80371 34.7744 9.80176V9.81543C34.7744 10.8545 34.0156 11.3877 32.5254 11.3877H30.5566V8.22266H32.8398ZM32.874 12.4473C34.4463 12.4473 35.2529 13.0283 35.2529 14.1631V14.1768C35.2529 15.3115 34.4736 15.9131 32.9902 15.9131H30.5566V12.4473H32.874ZM47.2842 17H48.4736V9.63086H47.2842V12.6797H43.6338V9.63086H42.4443V17H43.6338V13.6641H47.2842V17ZM52.8418 17.1299C53.833 17.1299 54.6055 16.6992 55.0703 15.9131H55.1797V17H56.3691V11.9551C56.3691 10.4238 55.3643 9.50098 53.5664 9.50098C51.9941 9.50098 50.873 10.2803 50.6816 11.4355L50.6748 11.4766H51.8643L51.8711 11.4561C52.0625 10.8818 52.6436 10.5537 53.5254 10.5537C54.626 10.5537 55.1797 11.0459 55.1797 11.9551V12.625L53.0674 12.7549C51.3516 12.8574 50.3809 13.6162 50.3809 14.9287V14.9424C50.3809 16.2822 51.4404 17.1299 52.8418 17.1299ZM51.5977 14.915V14.9014C51.5977 14.1699 52.0898 13.7734 53.2109 13.7051L55.1797 13.582V14.252C55.1797 15.3047 54.2979 16.0977 53.0879 16.0977C52.2334 16.0977 51.5977 15.6602 51.5977 14.915ZM60.4023 14.1152L60.6758 10.6152H63.2393V17H64.4287V9.63086H59.6094L59.2949 14.0195C59.2197 15.1133 58.9463 15.9678 58.2695 15.9678C58.0918 15.9678 57.9072 15.9404 57.8457 15.9199V16.9932C57.9414 17.0273 58.1328 17.0684 58.3857 17.0684C59.6162 17.0684 60.2451 16.1455 60.4023 14.1152ZM66.7666 17H67.9561L71.5996 11.5039H71.709V17H72.8984V9.63086H71.709L68.0654 15.127H67.9561V9.63086H66.7666V17ZM80.8623 17V9.63086H79.6729V12.7412C79.3652 13.083 78.7295 13.3223 77.8066 13.3223C76.8018 13.3223 76.2959 12.707 76.2959 11.7363V9.63086H75.1064V11.7363C75.1064 13.3086 76.0293 14.375 77.8066 14.375C78.5996 14.375 79.167 14.2109 79.5635 13.9307H79.6729V17H80.8623ZM83.2002 17H84.3896L88.0332 11.5039H88.1426V17H89.332V9.63086H88.1426L84.499 15.127H84.3896V9.63086H83.2002V17ZM91.6768 17H92.8662L96.5098 11.5039H96.6191V17H97.8086V9.63086H96.6191L92.9756 15.127H92.8662V9.63086H91.6768V17Z" fill="#454F5B"/>
</svg>
