<svg width="146" height="162" viewBox="0 0 146 162" fill="none" xmlns="http://www.w3.org/2000/svg">
<path d="M1.67871 20H3.57715L10.0371 10.6045H10.1865V20H12.1377V7.31738H10.2393L3.78809 16.748H3.62988V7.31738H1.67871V20ZM21.5068 20H23.4053V10.4551H21.5068V14.3047H17.1738V10.4551H15.2666V20H17.1738V15.8164H21.5068V20ZM30.8496 23.1816H32.6953V20.123C35.7012 20.0703 37.6875 18.1895 37.6875 15.2363V15.2188C37.6875 12.2568 35.71 10.3936 32.6953 10.332V7.27344H30.8496V10.332C27.835 10.3848 25.8398 12.2656 25.8398 15.2188V15.2363C25.8398 18.1895 27.8174 20.0615 30.8496 20.123V23.1816ZM30.8496 18.585C28.96 18.5322 27.7559 17.2842 27.7559 15.2363V15.2188C27.7559 13.1709 28.9688 11.9141 30.8496 11.8701V18.585ZM32.6865 18.585V11.8701C34.5674 11.9141 35.7715 13.1709 35.7715 15.2188V15.2363C35.7715 17.2842 34.5586 18.541 32.6865 18.585ZM44.1738 20.1846C46.9688 20.1846 48.6826 18.3125 48.6826 15.2363V15.2188C48.6826 12.1426 46.96 10.2705 44.1738 10.2705C41.3789 10.2705 39.6562 12.1514 39.6562 15.2188V15.2363C39.6562 18.3125 41.3701 20.1846 44.1738 20.1846ZM44.1738 18.5938C42.5303 18.5938 41.6074 17.3545 41.6074 15.2363V15.2188C41.6074 13.1006 42.5303 11.8613 44.1738 11.8613C45.8086 11.8613 46.7402 13.1006 46.7402 15.2188V15.2363C46.7402 17.3457 45.8086 18.5938 44.1738 18.5938ZM51.1348 23.1816H53.042V18.4883H53.1826C53.6924 19.5166 54.8086 20.1582 56.1182 20.1582C58.5439 20.1582 60.0732 18.2598 60.0732 15.2363V15.2188C60.0732 12.2129 58.5264 10.2881 56.1182 10.2881C54.7822 10.2881 53.7363 10.9121 53.1826 11.958H53.042V10.4551H51.1348V23.1816ZM55.582 18.5322C53.9912 18.5322 53.0068 17.2754 53.0068 15.2363V15.2188C53.0068 13.1797 53.9912 11.9229 55.582 11.9229C57.1729 11.9229 58.1309 13.1621 58.1309 15.2188V15.2363C58.1309 17.2842 57.1729 18.5322 55.582 18.5322ZM64.3887 20V13.3643H64.5557L67.3418 19.6396H68.7305L71.5254 13.3643H71.6924V20H73.5469V10.4551H71.2266L68.1416 17.4248H67.9922L64.9248 10.4551H62.5342V20H64.3887ZM79.084 20.1582C80.3496 20.1582 81.3516 19.6133 81.9141 18.6465H82.0635V20H83.9531V13.4697C83.9531 11.4658 82.5996 10.2705 80.2002 10.2705C78.0293 10.2705 76.5264 11.3164 76.2979 12.8809L76.2891 12.9424H78.126L78.1348 12.9072C78.3633 12.2305 79.0576 11.8438 80.1123 11.8438C81.4043 11.8438 82.0635 12.4238 82.0635 13.4697V14.3135L79.4795 14.4629C77.2031 14.6035 75.9199 15.5967 75.9199 17.3018V17.3193C75.9199 19.0508 77.2646 20.1582 79.084 20.1582ZM77.8184 17.2402V17.2227C77.8184 16.3613 78.416 15.8867 79.7344 15.8076L82.0635 15.6582V16.4756C82.0635 17.7061 81.0176 18.6377 79.5938 18.6377C78.5654 18.6377 77.8184 18.1191 77.8184 17.2402ZM94.5703 22.5049H96.3545V18.4971H94.8604V10.4551H92.9619V18.4971H88.7168V10.4551H86.8096V20H94.5703V22.5049ZM98.2705 20H100.16L104.476 13.2764H104.643V20H106.532V10.4551H104.643L100.327 17.1523H100.16V10.4551H98.2705V20ZM114.609 20H116.49V10.4551H112.816C110.61 10.4551 109.169 11.6768 109.169 13.6543V13.6719C109.169 14.9727 109.978 15.9922 111.296 16.3701L108.686 20H110.883L113.203 16.6953H114.609V20ZM112.913 15.2363C111.779 15.2363 111.085 14.5684 111.085 13.6543V13.6367C111.085 12.5908 111.771 11.9492 112.913 11.9492H114.609V15.2363H112.913Z" fill="white"/>
<path d="M1.3125 73.2266V71H10.1094V73.2266H11.1094V70.0312H9.67969V59.7266H2.82031L2.38281 66.75C2.27344 68.5391 1.95312 69.6094 1.13281 70.0312H0.3125V73.2266H1.3125ZM3.39844 66.7891L3.78906 60.6953H8.60938V70.0312H2.51562V69.9531C3.07031 69.3438 3.29688 68.4453 3.39844 66.7891ZM16.4844 71.1406C18.8359 71.1406 20.3125 69.4766 20.3125 66.7969V66.7812C20.3125 64.1016 18.8359 62.4453 16.4844 62.4453C14.1328 62.4453 12.6641 64.1016 12.6641 66.7812V66.7969C12.6641 69.4766 14.1328 71.1406 16.4844 71.1406ZM16.4844 70.2188C14.75 70.2188 13.7188 68.9219 13.7188 66.7969V66.7812C13.7188 64.6562 14.75 63.3672 16.4844 63.3672C18.2188 63.3672 19.25 64.6562 19.25 66.7812V66.7969C19.25 68.9219 18.2188 70.2188 16.4844 70.2188ZM26.0547 71.1406C27.9766 71.1406 29.1484 70.1172 29.4766 68.6328L29.4922 68.5703L28.4609 68.5781L28.4453 68.6172C28.1484 69.6328 27.2891 70.2188 26.0469 70.2188C24.3828 70.2188 23.3125 68.8672 23.3125 66.7734V66.7578C23.3125 64.6875 24.375 63.3672 26.0469 63.3672C27.3359 63.3672 28.2109 64.0781 28.4609 65.0469L28.4688 65.0703L29.4922 65.0625V65.0312C29.2344 63.5547 27.9766 62.4453 26.0469 62.4453C23.7266 62.4453 22.2578 64.1328 22.2578 66.7578V66.7734C22.2578 69.4375 23.7344 71.1406 26.0547 71.1406ZM37.4375 62.5859H30.6641V63.4531H33.5312V71H34.5703V63.4531H37.4375V62.5859ZM41.6094 71.1406C42.8516 71.1406 43.8594 70.5547 44.3594 69.5547H44.4531V71H45.4922V65.25C45.4922 63.4766 44.3438 62.4453 42.375 62.4453C40.6328 62.4453 39.3594 63.3047 39.1406 64.6484L39.1328 64.6797H40.1719L40.1797 64.6641C40.3984 63.8281 41.2031 63.3672 42.3438 63.3672C43.7031 63.3672 44.4531 64.0234 44.4531 65.2578V66.0469L41.8281 66.2188C39.8828 66.3516 38.7969 67.2031 38.7969 68.6641V68.6797C38.7969 70.1797 39.9844 71.1406 41.6094 71.1406ZM39.8516 68.6641V68.6484C39.8516 67.6953 40.5391 67.1562 41.9688 67.0625L44.4531 66.8906V67.8672C44.4531 69.2031 43.3125 70.2344 41.8047 70.2344C40.6719 70.2344 39.8516 69.625 39.8516 68.6641ZM48.2344 71H51.6406C53.4844 71 54.5469 70.1016 54.5469 68.6172V68.6016C54.5469 67.5234 53.7422 66.8281 52.6641 66.6875V66.5938C53.5156 66.4219 54.1406 65.6484 54.1406 64.7344V64.7188C54.1406 63.4219 53.2031 62.5859 51.6094 62.5859H48.2344V71ZM49.2734 66.2578V63.4531H51.4766C52.5547 63.4531 53.1094 64 53.1094 64.8203V64.8359C53.1094 65.7344 52.4922 66.2578 51.3203 66.2578H49.2734ZM49.2734 70.1328V67.1328H51.3984C52.7422 67.1328 53.4922 67.5938 53.4922 68.5859V68.6016C53.4922 69.5938 52.8516 70.1328 51.6016 70.1328H49.2734ZM58.3906 67.0938L62.1328 71H63.4844L59.25 66.6172L63.2969 62.5859H62.0312L58.3906 66.2734H57.9766V62.5859H56.9375V71H57.9766V67.0938H58.3906ZM67.5938 71.1406C68.8359 71.1406 69.8438 70.5547 70.3438 69.5547H70.4375V71H71.4766V65.25C71.4766 63.4766 70.3281 62.4453 68.3594 62.4453C66.6172 62.4453 65.3438 63.3047 65.125 64.6484L65.1172 64.6797H66.1562L66.1641 64.6641C66.3828 63.8281 67.1875 63.3672 68.3281 63.3672C69.6875 63.3672 70.4375 64.0234 70.4375 65.2578V66.0469L67.8125 66.2188C65.8672 66.3516 64.7812 67.2031 64.7812 68.6641V68.6797C64.7812 70.1797 65.9688 71.1406 67.5938 71.1406ZM65.8359 68.6641V68.6484C65.8359 67.6953 66.5234 67.1562 67.9531 67.0625L70.4375 66.8906V67.8672C70.4375 69.2031 69.2969 70.2344 67.7891 70.2344C66.6562 70.2344 65.8359 69.625 65.8359 68.6641ZM78.5312 71H79.5703L84.2109 64.2344H84.3203V71H85.3516V62.5859H84.3203L79.6719 69.3516H79.5703V62.5859H78.5312V71ZM95.8594 71.1406C98.2109 71.1406 99.6875 69.4766 99.6875 66.7969V66.7812C99.6875 64.1016 98.2109 62.4453 95.8594 62.4453C93.5078 62.4453 92.0391 64.1016 92.0391 66.7812V66.7969C92.0391 69.4766 93.5078 71.1406 95.8594 71.1406ZM95.8594 70.2188C94.125 70.2188 93.0938 68.9219 93.0938 66.7969V66.7812C93.0938 64.6562 94.125 63.3672 95.8594 63.3672C97.5938 63.3672 98.625 64.6562 98.625 66.7812V66.7969C98.625 68.9219 97.5938 70.2188 95.8594 70.2188ZM102.047 71H103.086V63.4531H107.648V71H108.688V62.5859H102.047V71ZM113.148 67.6562L113.461 63.4531H116.875V71H117.914V62.5859H112.531L112.18 67.5703C112.086 68.9922 111.766 70.1172 110.93 70.1172C110.742 70.1172 110.547 70.0859 110.469 70.0625V71C110.57 71.0391 110.773 71.0781 111.023 71.0781C112.391 71.0781 112.984 69.8359 113.148 67.6562ZM123.031 71.1406C124.273 71.1406 125.281 70.5547 125.781 69.5547H125.875V71H126.914V65.25C126.914 63.4766 125.766 62.4453 123.797 62.4453C122.055 62.4453 120.781 63.3047 120.562 64.6484L120.555 64.6797H121.594L121.602 64.6641C121.82 63.8281 122.625 63.3672 123.766 63.3672C125.125 63.3672 125.875 64.0234 125.875 65.2578V66.0469L123.25 66.2188C121.305 66.3516 120.219 67.2031 120.219 68.6641V68.6797C120.219 70.1797 121.406 71.1406 123.031 71.1406ZM121.273 68.6641V68.6484C121.273 67.6953 121.961 67.1562 123.391 67.0625L125.875 66.8906V67.8672C125.875 69.2031 124.734 70.2344 123.227 70.2344C122.094 70.2344 121.273 69.625 121.273 68.6641ZM135.688 62.5859H128.914V63.4531H131.781V71H132.82V63.4531H135.688V62.5859ZM139.859 71.1406C141.102 71.1406 142.109 70.5547 142.609 69.5547H142.703V71H143.742V65.25C143.742 63.4766 142.594 62.4453 140.625 62.4453C138.883 62.4453 137.609 63.3047 137.391 64.6484L137.383 64.6797H138.422L138.43 64.6641C138.648 63.8281 139.453 63.3672 140.594 63.3672C141.953 63.3672 142.703 64.0234 142.703 65.2578V66.0469L140.078 66.2188C138.133 66.3516 137.047 67.2031 137.047 68.6641V68.6797C137.047 70.1797 138.234 71.1406 139.859 71.1406ZM138.102 68.6641V68.6484C138.102 67.6953 138.789 67.1562 140.219 67.0625L142.703 66.8906V67.8672C142.703 69.2031 141.562 70.2344 140.055 70.2344C138.922 70.2344 138.102 69.625 138.102 68.6641Z" fill="white"/>
<path d="M2.59375 113V102.695H8.10938V101.727H1.52344V113H2.59375ZM11.5156 113.141C12.7578 113.141 13.7656 112.555 14.2656 111.555H14.3594V113H15.3984V107.25C15.3984 105.477 14.25 104.445 12.2812 104.445C10.5391 104.445 9.26562 105.305 9.04688 106.648L9.03906 106.68H10.0781L10.0859 106.664C10.3047 105.828 11.1094 105.367 12.25 105.367C13.6094 105.367 14.3594 106.023 14.3594 107.258V108.047L11.7344 108.219C9.78906 108.352 8.70312 109.203 8.70312 110.664V110.68C8.70312 112.18 9.89062 113.141 11.5156 113.141ZM9.75781 110.664V110.648C9.75781 109.695 10.4453 109.156 11.875 109.062L14.3594 108.891V109.867C14.3594 111.203 13.2188 112.234 11.7109 112.234C10.5781 112.234 9.75781 111.625 9.75781 110.664ZM18.1484 115.789H19.1797V111.359H19.2812C19.7422 112.445 20.8281 113.141 22.1016 113.141C24.2344 113.141 25.6641 111.406 25.6641 108.797V108.781C25.6641 106.188 24.2344 104.445 22.1016 104.445C20.8125 104.445 19.7734 105.133 19.2812 106.258H19.1797V104.586H18.1484V115.789ZM21.8906 112.219C20.2344 112.219 19.1641 110.875 19.1641 108.797V108.781C19.1641 106.711 20.2344 105.367 21.8906 105.367C23.5547 105.367 24.6094 106.703 24.6094 108.781V108.797C24.6094 110.883 23.5547 112.219 21.8906 112.219ZM30.3438 113.141C31.5859 113.141 32.5938 112.555 33.0938 111.555H33.1875V113H34.2266V107.25C34.2266 105.477 33.0781 104.445 31.1094 104.445C29.3672 104.445 28.0938 105.305 27.875 106.648L27.8672 106.68H28.9062L28.9141 106.664C29.1328 105.828 29.9375 105.367 31.0781 105.367C32.4375 105.367 33.1875 106.023 33.1875 107.258V108.047L30.5625 108.219C28.6172 108.352 27.5312 109.203 27.5312 110.664V110.68C27.5312 112.18 28.7188 113.141 30.3438 113.141ZM28.5859 110.664V110.648C28.5859 109.695 29.2734 109.156 30.7031 109.062L33.1875 108.891V109.867C33.1875 111.203 32.0469 112.234 30.5391 112.234C29.4062 112.234 28.5859 111.625 28.5859 110.664ZM42.6484 113H43.6875V104.586H42.6484V108.195H38.0078V104.586H36.9688V113H38.0078V109.062H42.6484V113ZM52.5 104.586H45.7266V105.453H48.5938V113H49.6328V105.453H52.5V104.586ZM54.5469 113H55.5859L60.2266 106.234H60.3359V113H61.3672V104.586H60.3359L55.6875 111.352H55.5859V104.586H54.5469V113ZM64.1562 113H65.1953L69.8359 106.234H69.9453V113H70.9766V104.586H69.9453L65.2969 111.352H65.1953V104.586H64.1562V113Z" fill="white"/>
<path d="M1.52344 155H5.63281C8.13281 155 9.50781 153.828 9.50781 151.922V151.906C9.50781 150.352 8.40625 149.32 6.86719 149.125V149.031C8.0625 148.812 8.92969 147.758 8.92969 146.523V146.508C8.92969 144.82 7.64844 143.727 5.57031 143.727H1.52344V155ZM5.35938 144.672C6.92188 144.672 7.85156 145.438 7.85156 146.672V146.688C7.85156 147.992 6.85938 148.734 5.11719 148.734H2.59375V144.672H5.35938ZM5.39062 149.656C7.30469 149.656 8.41406 150.445 8.41406 151.852V151.867C8.41406 153.258 7.4375 154.055 5.47656 154.055H2.59375V149.656H5.39062ZM15.2656 155.141C17.6172 155.141 19.0938 153.477 19.0938 150.797V150.781C19.0938 148.102 17.6172 146.445 15.2656 146.445C12.9141 146.445 11.4453 148.102 11.4453 150.781V150.797C11.4453 153.477 12.9141 155.141 15.2656 155.141ZM15.2656 154.219C13.5312 154.219 12.5 152.922 12.5 150.797V150.781C12.5 148.656 13.5312 147.367 15.2656 147.367C17 147.367 18.0312 148.656 18.0312 150.781V150.797C18.0312 152.922 17 154.219 15.2656 154.219ZM24.2109 155.148C26.0938 155.148 27.3984 154.148 27.3984 152.594V152.578C27.3984 151.523 26.6719 150.852 25.5781 150.656V150.555C26.4531 150.383 27.1094 149.625 27.1094 148.688V148.672C27.1094 147.367 26.0547 146.438 24.2422 146.438C22.5156 146.438 21.3594 147.359 21.1406 148.68L21.125 148.742H22.1406L22.1484 148.695C22.3281 147.883 23.1094 147.305 24.25 147.305C25.4375 147.305 26.0938 147.922 26.0938 148.742V148.758C26.0938 149.703 25.3906 150.234 24.1641 150.234H22.8359V151.109H24.1641C25.5625 151.109 26.375 151.594 26.375 152.633V152.648C26.375 153.625 25.5469 154.281 24.2109 154.281C22.9922 154.281 22.1797 153.703 21.9766 152.914L21.9609 152.844H20.9062L20.9219 152.922C21.1406 154.25 22.4141 155.148 24.2109 155.148ZM29.75 155H33.1562C35 155 36.0625 154.102 36.0625 152.617V152.602C36.0625 151.523 35.2578 150.828 34.1797 150.688V150.594C35.0312 150.422 35.6562 149.648 35.6562 148.734V148.719C35.6562 147.422 34.7188 146.586 33.125 146.586H29.75V155ZM30.7891 150.258V147.453H32.9922C34.0703 147.453 34.625 148 34.625 148.82V148.836C34.625 149.734 34.0078 150.258 32.8359 150.258H30.7891ZM30.7891 154.133V151.133H32.9141C34.2578 151.133 35.0078 151.594 35.0078 152.586V152.602C35.0078 153.594 34.3672 154.133 33.1172 154.133H30.7891ZM38.4609 157.789H39.4922V153.359H39.5938C40.0547 154.445 41.1406 155.141 42.4141 155.141C44.5469 155.141 45.9766 153.406 45.9766 150.797V150.781C45.9766 148.188 44.5469 146.445 42.4141 146.445C41.125 146.445 40.0859 147.133 39.5938 148.258H39.4922V146.586H38.4609V157.789ZM42.2031 154.219C40.5469 154.219 39.4766 152.875 39.4766 150.797V150.781C39.4766 148.711 40.5469 147.367 42.2031 147.367C43.8672 147.367 44.9219 148.703 44.9219 150.781V150.797C44.9219 152.883 43.8672 154.219 42.2031 154.219ZM50.6562 155.141C51.8984 155.141 52.9062 154.555 53.4062 153.555H53.5V155H54.5391V149.25C54.5391 147.477 53.3906 146.445 51.4219 146.445C49.6797 146.445 48.4062 147.305 48.1875 148.648L48.1797 148.68H49.2188L49.2266 148.664C49.4453 147.828 50.25 147.367 51.3906 147.367C52.75 147.367 53.5 148.023 53.5 149.258V150.047L50.875 150.219C48.9297 150.352 47.8438 151.203 47.8438 152.664V152.68C47.8438 154.18 49.0312 155.141 50.6562 155.141ZM48.8984 152.664V152.648C48.8984 151.695 49.5859 151.156 51.0156 151.062L53.5 150.891V151.867C53.5 153.203 52.3594 154.234 50.8516 154.234C49.7188 154.234 48.8984 153.625 48.8984 152.664ZM63.3125 146.586H56.5391V147.453H59.4062V155H60.4453V147.453H63.3125V146.586ZM75.7031 146.586H68.9297V147.453H71.7969V155H72.8359V147.453H75.7031V146.586ZM81.0312 155.141C83.3828 155.141 84.8594 153.477 84.8594 150.797V150.781C84.8594 148.102 83.3828 146.445 81.0312 146.445C78.6797 146.445 77.2109 148.102 77.2109 150.781V150.797C77.2109 153.477 78.6797 155.141 81.0312 155.141ZM81.0312 154.219C79.2969 154.219 78.2656 152.922 78.2656 150.797V150.781C78.2656 148.656 79.2969 147.367 81.0312 147.367C82.7656 147.367 83.7969 148.656 83.7969 150.781V150.797C83.7969 152.922 82.7656 154.219 81.0312 154.219ZM87.2188 155H90.625C92.4688 155 93.5312 154.102 93.5312 152.617V152.602C93.5312 151.523 92.7266 150.828 91.6484 150.688V150.594C92.5 150.422 93.125 149.648 93.125 148.734V148.719C93.125 147.422 92.1875 146.586 90.5938 146.586H87.2188V155ZM88.2578 150.258V147.453H90.4609C91.5391 147.453 92.0938 148 92.0938 148.82V148.836C92.0938 149.734 91.4766 150.258 90.3047 150.258H88.2578ZM88.2578 154.133V151.133H90.3828C91.7266 151.133 92.4766 151.594 92.4766 152.586V152.602C92.4766 153.594 91.8359 154.133 90.5859 154.133H88.2578ZM98.2188 155.141C99.4609 155.141 100.469 154.555 100.969 153.555H101.062V155H102.102V149.25C102.102 147.477 100.953 146.445 98.9844 146.445C97.2422 146.445 95.9688 147.305 95.75 148.648L95.7422 148.68H96.7812L96.7891 148.664C97.0078 147.828 97.8125 147.367 98.9531 147.367C100.312 147.367 101.062 148.023 101.062 149.258V150.047L98.4375 150.219C96.4922 150.352 95.4062 151.203 95.4062 152.664V152.68C95.4062 154.18 96.5938 155.141 98.2188 155.141ZM96.4609 152.664V152.648C96.4609 151.695 97.1484 151.156 98.5781 151.062L101.062 150.891V151.867C101.062 153.203 99.9219 154.234 98.4141 154.234C97.2812 154.234 96.4609 153.625 96.4609 152.664ZM104.852 157.789H105.883V153.359H105.984C106.445 154.445 107.531 155.141 108.805 155.141C110.938 155.141 112.367 153.406 112.367 150.797V150.781C112.367 148.188 110.938 146.445 108.805 146.445C107.516 146.445 106.477 147.133 105.984 148.258H105.883V146.586H104.852V157.789ZM108.594 154.219C106.938 154.219 105.867 152.875 105.867 150.797V150.781C105.867 148.711 106.938 147.367 108.594 147.367C110.258 147.367 111.312 148.703 111.312 150.781V150.797C111.312 152.883 110.258 154.219 108.594 154.219ZM117.047 155.141C118.289 155.141 119.297 154.555 119.797 153.555H119.891V155H120.93V149.25C120.93 147.477 119.781 146.445 117.812 146.445C116.07 146.445 114.797 147.305 114.578 148.648L114.57 148.68H115.609L115.617 148.664C115.836 147.828 116.641 147.367 117.781 147.367C119.141 147.367 119.891 148.023 119.891 149.258V150.047L117.266 150.219C115.32 150.352 114.234 151.203 114.234 152.664V152.68C114.234 154.18 115.422 155.141 117.047 155.141ZM115.289 152.664V152.648C115.289 151.695 115.977 151.156 117.406 151.062L119.891 150.891V151.867C119.891 153.203 118.75 154.234 117.242 154.234C116.109 154.234 115.289 153.625 115.289 152.664Z" fill="white"/>
</svg>
