<svg width="179" height="277" viewBox="0 0 179 277" fill="none" xmlns="http://www.w3.org/2000/svg">
<path d="M1.67871 20H3.64746V14.3838H10.1602V20H12.1201V7.31738H10.1602V12.6787H3.64746V7.31738H1.67871V20ZM17.877 20.1582C19.1426 20.1582 20.1445 19.6133 20.707 18.6465H20.8564V20H22.7461V13.4697C22.7461 11.4658 21.3926 10.2705 18.9932 10.2705C16.8223 10.2705 15.3193 11.3164 15.0908 12.8809L15.082 12.9424H16.9189L16.9277 12.9072C17.1562 12.2305 17.8506 11.8438 18.9053 11.8438C20.1973 11.8438 20.8564 12.4238 20.8564 13.4697V14.3135L18.2725 14.4629C15.9961 14.6035 14.7129 15.5967 14.7129 17.3018V17.3193C14.7129 19.0508 16.0576 20.1582 17.877 20.1582ZM16.6113 17.2402V17.2227C16.6113 16.3613 17.209 15.8867 18.5273 15.8076L20.8564 15.6582V16.4756C20.8564 17.7061 19.8105 18.6377 18.3867 18.6377C17.3584 18.6377 16.6113 18.1191 16.6113 17.2402ZM25.6025 20H37.8633V10.4551H35.9561V18.4795H32.6865V10.4551H30.7793V18.4795H27.5098V10.4551H25.6025V20ZM40.7725 20H42.6621L46.9775 13.2764H47.1445V20H49.0342V10.4551H47.1445L42.8291 17.1523H42.6621V10.4551H40.7725V20ZM59.0713 20V14.3662H59.5283L64.749 20H67.2451L61.207 13.4434L66.7881 7.31738H64.459L59.5195 12.8281H59.0713V7.31738H57.1025V20H59.0713ZM72.5273 20.1846C75.3223 20.1846 77.0361 18.3125 77.0361 15.2363V15.2188C77.0361 12.1426 75.3135 10.2705 72.5273 10.2705C69.7324 10.2705 68.0098 12.1514 68.0098 15.2188V15.2363C68.0098 18.3125 69.7236 20.1846 72.5273 20.1846ZM72.5273 18.5938C70.8838 18.5938 69.9609 17.3545 69.9609 15.2363V15.2188C69.9609 13.1006 70.8838 11.8613 72.5273 11.8613C74.1621 11.8613 75.0938 13.1006 75.0938 15.2188V15.2363C75.0938 17.3457 74.1621 18.5938 72.5273 18.5938ZM85.7197 20H87.6182V10.4551H85.7197V14.3047H81.3867V10.4551H79.4795V20H81.3867V15.8164H85.7197V20ZM97.6553 10.4551H89.7363V11.958H92.7422V20H94.6494V11.958H97.6553V10.4551ZM102.27 20.1582C103.535 20.1582 104.537 19.6133 105.1 18.6465H105.249V20H107.139V13.4697C107.139 11.4658 105.785 10.2705 103.386 10.2705C101.215 10.2705 99.7119 11.3164 99.4834 12.8809L99.4746 12.9424H101.312L101.32 12.9072C101.549 12.2305 102.243 11.8438 103.298 11.8438C104.59 11.8438 105.249 12.4238 105.249 13.4697V14.3135L102.665 14.4629C100.389 14.6035 99.1055 15.5967 99.1055 17.3018V17.3193C99.1055 19.0508 100.45 20.1582 102.27 20.1582ZM101.004 17.2402V17.2227C101.004 16.3613 101.602 15.8867 102.92 15.8076L105.249 15.6582V16.4756C105.249 17.7061 104.203 18.6377 102.779 18.6377C101.751 18.6377 101.004 18.1191 101.004 17.2402ZM112.386 15.7812L115.805 20H118.16L113.933 14.9023L117.984 10.4551H115.761L112.377 14.3574H111.902V10.4551H109.995V20H111.902V15.7812H112.386ZM126.888 10.4551H118.969V11.958H121.975V20H123.882V11.958H126.888V10.4551ZM129.015 20H132.794C135.009 20 136.424 18.7256 136.424 16.7129V16.6953C136.424 14.6914 135.009 13.417 132.794 13.417H130.922V10.4551H129.015V20ZM138.032 20H139.939V10.4551H138.032V20ZM132.636 14.9199C133.778 14.9199 134.508 15.623 134.508 16.6953V16.7129C134.508 17.7764 133.787 18.4971 132.636 18.4971H130.922V14.9199H132.636Z" fill="white"/>
<path d="M3.97852 69H4.9082V59.9834H8.2168V59.1357H0.669922V59.9834H3.97852V69ZM12.0791 69.123C13.7061 69.123 14.7793 68.2344 15.0664 67.2363L15.0869 67.1816H14.1777L14.1504 67.2295C13.9111 67.8037 13.1729 68.3096 12.0996 68.3096C10.6367 68.3096 9.69336 67.2773 9.66602 65.5547H15.1963V65.1719C15.1963 62.9912 13.9795 61.5146 12.0039 61.5146C10.0283 61.5146 8.74316 63.0322 8.74316 65.3291V65.3428C8.74316 67.6533 10.0146 69.123 12.0791 69.123ZM12.0039 62.3213C13.2686 62.3213 14.1777 63.1826 14.2803 64.8164H9.67285C9.78906 63.2236 10.7324 62.3213 12.0039 62.3213ZM18.5049 66.0742L18.7783 62.3965H21.7656V69H22.6748V61.6377H17.9648L17.6572 65.999C17.5752 67.2432 17.2949 68.2275 16.5635 68.2275C16.3994 68.2275 16.2285 68.2002 16.1602 68.1797V69C16.249 69.0342 16.4268 69.0684 16.6455 69.0684C17.8418 69.0684 18.3613 67.9814 18.5049 66.0742ZM28.0889 69.123C29.7158 69.123 30.7891 68.2344 31.0762 67.2363L31.0967 67.1816H30.1875L30.1602 67.2295C29.9209 67.8037 29.1826 68.3096 28.1094 68.3096C26.6465 68.3096 25.7031 67.2773 25.6758 65.5547H31.2061V65.1719C31.2061 62.9912 29.9893 61.5146 28.0137 61.5146C26.0381 61.5146 24.7529 63.0322 24.7529 65.3291V65.3428C24.7529 67.6533 26.0244 69.123 28.0889 69.123ZM28.0137 62.3213C29.2783 62.3213 30.1875 63.1826 30.29 64.8164H25.6826C25.7988 63.2236 26.7422 62.3213 28.0137 62.3213ZM36.7773 71.4404H37.6523V69.1025C39.9629 69.0615 41.5078 67.6191 41.5078 65.3291V65.3154C41.5078 63.0322 39.9697 61.5967 37.6523 61.5488V59.0674H36.7773V61.5488C34.4531 61.5898 32.915 63.0322 32.915 65.3223V65.3359C32.915 67.6123 34.4531 69.0547 36.7773 69.1025V71.4404ZM36.7773 68.3232C34.9863 68.2686 33.8242 67.1543 33.8242 65.3359V65.3223C33.8242 63.4971 34.9863 62.376 36.7773 62.3281V68.3232ZM37.6523 68.3232V62.3281C39.4365 62.376 40.5986 63.4971 40.5986 65.3154V65.3291C40.5986 67.1543 39.4365 68.2754 37.6523 68.3232ZM46.5527 69.123C48.6104 69.123 49.9023 67.667 49.9023 65.3223V65.3086C49.9023 62.9639 48.6104 61.5146 46.5527 61.5146C44.4951 61.5146 43.21 62.9639 43.21 65.3086V65.3223C43.21 67.667 44.4951 69.123 46.5527 69.123ZM46.5527 68.3164C45.0352 68.3164 44.1328 67.1816 44.1328 65.3223V65.3086C44.1328 63.4492 45.0352 62.3213 46.5527 62.3213C48.0703 62.3213 48.9727 63.4492 48.9727 65.3086V65.3223C48.9727 67.1816 48.0703 68.3164 46.5527 68.3164ZM56.9365 69H57.8457V61.6377H56.9365V64.7959H52.876V61.6377H51.9668V69H52.876V65.5547H56.9365V69ZM60.2793 69H62.8223C64.4492 69 65.4883 68.0566 65.4883 66.5801V66.5664C65.4883 65.083 64.4492 64.1396 62.8223 64.1396H61.1885V61.6377H60.2793V69ZM66.8623 69H67.7646V61.6377H66.8623V69ZM62.8223 64.9053C63.8955 64.9053 64.5791 65.5547 64.5791 66.5664V66.5801C64.5791 67.5781 63.9023 68.2412 62.8223 68.2412H61.1885V64.9053H62.8223Z" fill="#C4CDD5"/>
<path d="M0.898438 106.938H4.50781V110.656H5.47656V106.938H9.08594V105.969H5.47656V102.242H4.50781V105.969H0.898438V106.938ZM11.8594 111H13L18.1562 100.727V99.7266H10.8203V100.688H17.0703V100.773L11.8594 111ZM27.4531 113.789H28.3438C27.1406 112.234 26.3125 109.164 26.3125 106.508C26.3125 103.875 27.1406 100.797 28.3438 99.2344H27.4531C25.9609 101.18 25.2656 103.711 25.2656 106.508C25.2656 109.32 25.9688 111.844 27.4531 113.789ZM34.0938 99.4922C31.875 99.4922 30.2188 101.133 30.2188 103.352V103.367C30.2188 105.516 31.8125 107.125 33.9297 107.125C35.5391 107.125 36.7422 106.188 37.1406 105.055H37.25C37.2578 105.164 37.25 105.281 37.25 105.391C37.1875 108.07 36.2344 110.273 34.0312 110.273C32.7578 110.273 31.8203 109.555 31.5078 108.484L31.4844 108.398H30.4141L30.4297 108.5C30.7734 110.102 32.1406 111.234 34.0234 111.234C36.6797 111.234 38.2734 108.938 38.2734 105.062V105.047C38.2734 101.086 36.2812 99.4922 34.0938 99.4922ZM34.0938 106.188C32.4922 106.188 31.2891 104.977 31.2891 103.344V103.328C31.2891 101.711 32.5391 100.445 34.1094 100.445C35.7344 100.445 36.9531 101.773 36.9531 103.422V103.43C36.9531 104.977 35.6875 106.188 34.0938 106.188ZM44.3516 111.18C46.7109 111.18 48.375 109.836 48.375 107.945V107.93C48.375 106.516 47.3516 105.359 45.8672 105.039V105.016C47.1406 104.656 47.9688 103.719 47.9688 102.5V102.484C47.9688 100.789 46.4531 99.5469 44.3516 99.5469C42.2578 99.5469 40.7422 100.789 40.7422 102.484V102.5C40.7422 103.719 41.5703 104.656 42.8438 105.016V105.039C41.3594 105.359 40.3359 106.516 40.3359 107.93V107.945C40.3359 109.836 42 111.18 44.3516 111.18ZM44.3516 104.609C42.8516 104.609 41.8047 103.766 41.8047 102.586V102.57C41.8047 101.367 42.8438 100.477 44.3516 100.477C45.8672 100.477 46.9062 101.367 46.9062 102.57V102.586C46.9062 103.766 45.8594 104.609 44.3516 104.609ZM44.3516 110.242C42.625 110.242 41.4219 109.25 41.4219 107.883V107.867C41.4219 106.516 42.625 105.562 44.3516 105.562C46.0859 105.562 47.2891 106.516 47.2891 107.867V107.883C47.2891 109.25 46.0859 110.242 44.3516 110.242ZM54.4609 111.18C56.8203 111.18 58.4844 109.836 58.4844 107.945V107.93C58.4844 106.516 57.4609 105.359 55.9766 105.039V105.016C57.25 104.656 58.0781 103.719 58.0781 102.5V102.484C58.0781 100.789 56.5625 99.5469 54.4609 99.5469C52.3672 99.5469 50.8516 100.789 50.8516 102.484V102.5C50.8516 103.719 51.6797 104.656 52.9531 105.016V105.039C51.4688 105.359 50.4453 106.516 50.4453 107.93V107.945C50.4453 109.836 52.1094 111.18 54.4609 111.18ZM54.4609 104.609C52.9609 104.609 51.9141 103.766 51.9141 102.586V102.57C51.9141 101.367 52.9531 100.477 54.4609 100.477C55.9766 100.477 57.0156 101.367 57.0156 102.57V102.586C57.0156 103.766 55.9688 104.609 54.4609 104.609ZM54.4609 110.242C52.7344 110.242 51.5312 109.25 51.5312 107.883V107.867C51.5312 106.516 52.7344 105.562 54.4609 105.562C56.1953 105.562 57.3984 106.516 57.3984 107.867V107.883C57.3984 109.25 56.1953 110.242 54.4609 110.242ZM61.2891 113.789C62.7734 111.844 63.4766 109.32 63.4766 106.508C63.4766 103.711 62.7812 101.18 61.2891 99.2344H60.3984C61.6016 100.797 62.4297 103.875 62.4297 106.508C62.4297 109.164 61.6016 112.234 60.3984 113.789H61.2891ZM74.6094 111.234C76.8672 111.234 78.5 109.648 78.5 107.414V107.398C78.5 105.234 76.9453 103.648 74.8359 103.648C73.7344 103.648 72.75 104.125 72.2109 104.945H72.1094L72.5625 100.688H77.8359V99.7266H71.7109L71.0859 106.078H72.0312C72.1562 105.859 72.3047 105.664 72.4688 105.5C73.0156 104.898 73.7891 104.578 74.6719 104.578C76.2734 104.578 77.4531 105.781 77.4531 107.422V107.438C77.4531 109.094 76.2734 110.281 74.625 110.281C73.1875 110.281 72.0781 109.352 71.9219 108.188L71.9141 108.133H70.8906L70.8984 108.211C71.0703 109.922 72.5781 111.234 74.6094 111.234ZM84.6641 111.234C86.8906 111.234 88.5391 109.594 88.5391 107.375V107.359C88.5391 105.211 86.9531 103.602 84.8281 103.602C83.2266 103.602 82.0156 104.539 81.6172 105.672H81.5078C81.5078 105.562 81.5078 105.445 81.5078 105.336C81.5703 102.656 82.5312 100.453 84.7266 100.453C86.0078 100.453 86.9375 101.172 87.25 102.242L87.2734 102.328H88.3516L88.3281 102.227C87.9844 100.625 86.6172 99.4922 84.7422 99.4922C82.0859 99.4922 80.4844 101.789 80.4844 105.664V105.68C80.4844 109.641 82.4844 111.234 84.6641 111.234ZM81.8047 107.305V107.297C81.8047 105.75 83.0781 104.539 84.6641 104.539C86.2734 104.539 87.4688 105.75 87.4688 107.383V107.398C87.4688 109.016 86.2266 110.281 84.6484 110.281C83.0234 110.281 81.8047 108.953 81.8047 107.305ZM94.4375 111.234C96.6953 111.234 98.3281 109.648 98.3281 107.414V107.398C98.3281 105.234 96.7734 103.648 94.6641 103.648C93.5625 103.648 92.5781 104.125 92.0391 104.945H91.9375L92.3906 100.688H97.6641V99.7266H91.5391L90.9141 106.078H91.8594C91.9844 105.859 92.1328 105.664 92.2969 105.5C92.8438 104.898 93.6172 104.578 94.5 104.578C96.1016 104.578 97.2812 105.781 97.2812 107.422V107.438C97.2812 109.094 96.1016 110.281 94.4531 110.281C93.0156 110.281 91.9062 109.352 91.75 108.188L91.7422 108.133H90.7188L90.7266 108.211C90.8984 109.922 92.4062 111.234 94.4375 111.234ZM108.656 111.234C111.133 111.234 112.633 108.977 112.633 105.375V105.352C112.633 101.75 111.133 99.4922 108.656 99.4922C106.18 99.4922 104.695 101.75 104.695 105.352V105.375C104.695 108.969 106.18 111.234 108.656 111.234ZM108.656 110.297C106.844 110.297 105.766 108.398 105.766 105.375V105.352C105.766 102.328 106.844 100.438 108.656 100.438C110.477 100.438 111.562 102.32 111.562 105.352V105.375C111.562 108.398 110.477 110.297 108.656 110.297ZM118.672 111.234C121.148 111.234 122.648 108.977 122.648 105.375V105.352C122.648 101.75 121.148 99.4922 118.672 99.4922C116.195 99.4922 114.711 101.75 114.711 105.352V105.375C114.711 108.969 116.195 111.234 118.672 111.234ZM118.672 110.297C116.859 110.297 115.781 108.398 115.781 105.375V105.352C115.781 102.328 116.859 100.438 118.672 100.438C120.492 100.438 121.578 102.32 121.578 105.352V105.375C121.578 108.398 120.492 110.297 118.672 110.297ZM132.969 111.18C135.188 111.18 136.82 109.797 136.82 107.93V107.914C136.82 106.312 135.695 105.266 134.016 105.133V105.102C135.453 104.812 136.414 103.836 136.414 102.445V102.43C136.414 100.75 135 99.5469 132.922 99.5469C130.875 99.5469 129.477 100.766 129.312 102.5L129.305 102.578H130.336L130.344 102.5C130.461 101.305 131.469 100.484 132.922 100.484C134.406 100.484 135.344 101.289 135.344 102.555V102.57C135.344 103.812 134.297 104.703 132.797 104.703H131.484V105.617H132.836C134.633 105.617 135.734 106.461 135.734 107.938V107.953C135.734 109.289 134.594 110.242 132.969 110.242C131.328 110.242 130.25 109.367 130.102 108.148L130.094 108.078H129.062L129.07 108.164C129.25 109.898 130.695 111.18 132.969 111.18ZM142.898 111.18C145.258 111.18 146.922 109.836 146.922 107.945V107.93C146.922 106.516 145.898 105.359 144.414 105.039V105.016C145.688 104.656 146.516 103.719 146.516 102.5V102.484C146.516 100.789 145 99.5469 142.898 99.5469C140.805 99.5469 139.289 100.789 139.289 102.484V102.5C139.289 103.719 140.117 104.656 141.391 105.016V105.039C139.906 105.359 138.883 106.516 138.883 107.93V107.945C138.883 109.836 140.547 111.18 142.898 111.18ZM142.898 104.609C141.398 104.609 140.352 103.766 140.352 102.586V102.57C140.352 101.367 141.391 100.477 142.898 100.477C144.414 100.477 145.453 101.367 145.453 102.57V102.586C145.453 103.766 144.406 104.609 142.898 104.609ZM142.898 110.242C141.172 110.242 139.969 109.25 139.969 107.883V107.867C139.969 106.516 141.172 105.562 142.898 105.562C144.633 105.562 145.836 106.516 145.836 107.867V107.883C145.836 109.25 144.633 110.242 142.898 110.242Z" fill="white"/>
<path d="M0.898438 144.938H4.50781V148.656H5.47656V144.938H9.08594V143.969H5.47656V140.242H4.50781V143.969H0.898438V144.938ZM14.9531 149.18C17.1719 149.18 18.8047 147.797 18.8047 145.93V145.914C18.8047 144.312 17.6797 143.266 16 143.133V143.102C17.4375 142.812 18.3984 141.836 18.3984 140.445V140.43C18.3984 138.75 16.9844 137.547 14.9062 137.547C12.8594 137.547 11.4609 138.766 11.2969 140.5L11.2891 140.578H12.3203L12.3281 140.5C12.4453 139.305 13.4531 138.484 14.9062 138.484C16.3906 138.484 17.3281 139.289 17.3281 140.555V140.57C17.3281 141.812 16.2812 142.703 14.7812 142.703H13.4688V143.617H14.8203C16.6172 143.617 17.7188 144.461 17.7188 145.938V145.953C17.7188 147.289 16.5781 148.242 14.9531 148.242C13.3125 148.242 12.2344 147.367 12.0859 146.148L12.0781 146.078H11.0469L11.0547 146.164C11.2344 147.898 12.6797 149.18 14.9531 149.18ZM21.5781 149H22.7188L27.875 138.727V137.727H20.5391V138.688H26.7891V138.773L21.5781 149ZM33.4688 149.234C35.7266 149.234 37.3594 147.648 37.3594 145.414V145.398C37.3594 143.234 35.8047 141.648 33.6953 141.648C32.5938 141.648 31.6094 142.125 31.0703 142.945H30.9688L31.4219 138.688H36.6953V137.727H30.5703L29.9453 144.078H30.8906C31.0156 143.859 31.1641 143.664 31.3281 143.5C31.875 142.898 32.6484 142.578 33.5312 142.578C35.1328 142.578 36.3125 143.781 36.3125 145.422V145.438C36.3125 147.094 35.1328 148.281 33.4844 148.281C32.0469 148.281 30.9375 147.352 30.7812 146.188L30.7734 146.133H29.75L29.7578 146.211C29.9297 147.922 31.4375 149.234 33.4688 149.234ZM47.6562 149.18C49.875 149.18 51.5078 147.797 51.5078 145.93V145.914C51.5078 144.312 50.3828 143.266 48.7031 143.133V143.102C50.1406 142.812 51.1016 141.836 51.1016 140.445V140.43C51.1016 138.75 49.6875 137.547 47.6094 137.547C45.5625 137.547 44.1641 138.766 44 140.5L43.9922 140.578H45.0234L45.0312 140.5C45.1484 139.305 46.1562 138.484 47.6094 138.484C49.0938 138.484 50.0312 139.289 50.0312 140.555V140.57C50.0312 141.812 48.9844 142.703 47.4844 142.703H46.1719V143.617H47.5234C49.3203 143.617 50.4219 144.461 50.4219 145.938V145.953C50.4219 147.289 49.2812 148.242 47.6562 148.242C46.0156 148.242 44.9375 147.367 44.7891 146.148L44.7812 146.078H43.75L43.7578 146.164C43.9375 147.898 45.3828 149.18 47.6562 149.18ZM57.5 149.18C59.7188 149.18 61.3516 147.797 61.3516 145.93V145.914C61.3516 144.312 60.2266 143.266 58.5469 143.133V143.102C59.9844 142.812 60.9453 141.836 60.9453 140.445V140.43C60.9453 138.75 59.5312 137.547 57.4531 137.547C55.4062 137.547 54.0078 138.766 53.8438 140.5L53.8359 140.578H54.8672L54.875 140.5C54.9922 139.305 56 138.484 57.4531 138.484C58.9375 138.484 59.875 139.289 59.875 140.555V140.57C59.875 141.812 58.8281 142.703 57.3281 142.703H56.0156V143.617H57.3672C59.1641 143.617 60.2656 144.461 60.2656 145.938V145.953C60.2656 147.289 59.125 148.242 57.5 148.242C55.8594 148.242 54.7812 147.367 54.6328 146.148L54.625 146.078H53.5938L53.6016 146.164C53.7812 147.898 55.2266 149.18 57.5 149.18ZM71.8828 149.234C74.1094 149.234 75.7578 147.594 75.7578 145.375V145.359C75.7578 143.211 74.1719 141.602 72.0469 141.602C70.4453 141.602 69.2344 142.539 68.8359 143.672H68.7266C68.7266 143.562 68.7266 143.445 68.7266 143.336C68.7891 140.656 69.75 138.453 71.9453 138.453C73.2266 138.453 74.1562 139.172 74.4688 140.242L74.4922 140.328H75.5703L75.5469 140.227C75.2031 138.625 73.8359 137.492 71.9609 137.492C69.3047 137.492 67.7031 139.789 67.7031 143.664V143.68C67.7031 147.641 69.7031 149.234 71.8828 149.234ZM69.0234 145.305V145.297C69.0234 143.75 70.2969 142.539 71.8828 142.539C73.4922 142.539 74.6875 143.75 74.6875 145.383V145.398C74.6875 147.016 73.4453 148.281 71.8672 148.281C70.2422 148.281 69.0234 146.953 69.0234 145.305ZM81.9453 149.234C84.1719 149.234 85.8203 147.594 85.8203 145.375V145.359C85.8203 143.211 84.2344 141.602 82.1094 141.602C80.5078 141.602 79.2969 142.539 78.8984 143.672H78.7891C78.7891 143.562 78.7891 143.445 78.7891 143.336C78.8516 140.656 79.8125 138.453 82.0078 138.453C83.2891 138.453 84.2188 139.172 84.5312 140.242L84.5547 140.328H85.6328L85.6094 140.227C85.2656 138.625 83.8984 137.492 82.0234 137.492C79.3672 137.492 77.7656 139.789 77.7656 143.664V143.68C77.7656 147.641 79.7656 149.234 81.9453 149.234ZM79.0859 145.305V145.297C79.0859 143.75 80.3594 142.539 81.9453 142.539C83.5547 142.539 84.75 143.75 84.75 145.383V145.398C84.75 147.016 83.5078 148.281 81.9297 148.281C80.3047 148.281 79.0859 146.953 79.0859 145.305ZM88.0391 149H95.2891V148.031H89.5312V147.938L92.4844 144.875C94.4688 142.82 95.0156 141.891 95.0156 140.633V140.617C95.0156 138.828 93.5312 137.492 91.5859 137.492C89.5 137.492 88 138.891 87.9766 140.836L87.9922 140.844H89.0156V140.836C89.0312 139.414 90.0547 138.43 91.5234 138.43C92.9688 138.43 93.9297 139.422 93.9297 140.719V140.734C93.9297 141.758 93.4844 142.414 91.9219 144.086L88.0391 148.25V149ZM105.727 149.18C108.086 149.18 109.75 147.836 109.75 145.945V145.93C109.75 144.516 108.727 143.359 107.242 143.039V143.016C108.516 142.656 109.344 141.719 109.344 140.5V140.484C109.344 138.789 107.828 137.547 105.727 137.547C103.633 137.547 102.117 138.789 102.117 140.484V140.5C102.117 141.719 102.945 142.656 104.219 143.016V143.039C102.734 143.359 101.711 144.516 101.711 145.93V145.945C101.711 147.836 103.375 149.18 105.727 149.18ZM105.727 142.609C104.227 142.609 103.18 141.766 103.18 140.586V140.57C103.18 139.367 104.219 138.477 105.727 138.477C107.242 138.477 108.281 139.367 108.281 140.57V140.586C108.281 141.766 107.234 142.609 105.727 142.609ZM105.727 148.242C104 148.242 102.797 147.25 102.797 145.883V145.867C102.797 144.516 104 143.562 105.727 143.562C107.461 143.562 108.664 144.516 108.664 145.867V145.883C108.664 147.25 107.461 148.242 105.727 148.242ZM112.008 149H119.258V148.031H113.5V147.938L116.453 144.875C118.438 142.82 118.984 141.891 118.984 140.633V140.617C118.984 138.828 117.5 137.492 115.555 137.492C113.469 137.492 111.969 138.891 111.945 140.836L111.961 140.844H112.984V140.836C113 139.414 114.023 138.43 115.492 138.43C116.938 138.43 117.898 139.422 117.898 140.719V140.734C117.898 141.758 117.453 142.414 115.891 144.086L112.008 148.25V149ZM129.547 149.234C131.805 149.234 133.438 147.648 133.438 145.414V145.398C133.438 143.234 131.883 141.648 129.773 141.648C128.672 141.648 127.688 142.125 127.148 142.945H127.047L127.5 138.688H132.773V137.727H126.648L126.023 144.078H126.969C127.094 143.859 127.242 143.664 127.406 143.5C127.953 142.898 128.727 142.578 129.609 142.578C131.211 142.578 132.391 143.781 132.391 145.422V145.438C132.391 147.094 131.211 148.281 129.562 148.281C128.125 148.281 127.016 147.352 126.859 146.188L126.852 146.133H125.828L125.836 146.211C126.008 147.922 127.516 149.234 129.547 149.234ZM139.602 149.234C141.828 149.234 143.477 147.594 143.477 145.375V145.359C143.477 143.211 141.891 141.602 139.766 141.602C138.164 141.602 136.953 142.539 136.555 143.672H136.445C136.445 143.562 136.445 143.445 136.445 143.336C136.508 140.656 137.469 138.453 139.664 138.453C140.945 138.453 141.875 139.172 142.188 140.242L142.211 140.328H143.289L143.266 140.227C142.922 138.625 141.555 137.492 139.68 137.492C137.023 137.492 135.422 139.789 135.422 143.664V143.68C135.422 147.641 137.422 149.234 139.602 149.234ZM136.742 145.305V145.297C136.742 143.75 138.016 142.539 139.602 142.539C141.211 142.539 142.406 143.75 142.406 145.383V145.398C142.406 147.016 141.164 148.281 139.586 148.281C137.961 148.281 136.742 146.953 136.742 145.305Z" fill="white"/>
<path d="M1.26465 193H7.22559V192.152H2.20117V188.365H6.97266V187.531H2.20117V183.983H7.22559V183.136H1.26465V193ZM9.34473 193H10.2471V188.481C10.2471 187.278 11.0674 186.321 12.1338 186.321C13.1523 186.321 13.8223 187.012 13.8223 188.071V193H14.7246V188.331C14.7246 187.189 15.4834 186.321 16.6182 186.321C17.7256 186.321 18.3066 186.964 18.3066 188.167V193H19.2158V187.962C19.2158 186.403 18.3613 185.515 16.8848 185.515C15.8252 185.515 14.9639 186.082 14.5879 186.964H14.499C14.1846 186.082 13.4463 185.515 12.4141 185.515C11.4092 185.515 10.6504 186.055 10.3359 186.937H10.2471V185.638H9.34473V193ZM23.4883 193.123C24.5752 193.123 25.457 192.61 25.8945 191.735H25.9766V193H26.8857V187.969C26.8857 186.417 25.8809 185.515 24.1582 185.515C22.6338 185.515 21.5195 186.267 21.3281 187.442L21.3213 187.47H22.2305L22.2373 187.456C22.4287 186.725 23.1328 186.321 24.1309 186.321C25.3203 186.321 25.9766 186.896 25.9766 187.976V188.666L23.6797 188.816C21.9775 188.933 21.0273 189.678 21.0273 190.956V190.97C21.0273 192.282 22.0664 193.123 23.4883 193.123ZM21.9502 190.956V190.942C21.9502 190.108 22.5518 189.637 23.8027 189.555L25.9766 189.404V190.259C25.9766 191.428 24.9785 192.33 23.6592 192.33C22.668 192.33 21.9502 191.797 21.9502 190.956ZM29.6543 184.106C30.0166 184.106 30.3174 183.812 30.3174 183.443C30.3174 183.074 30.0166 182.78 29.6543 182.78C29.2852 182.78 28.9844 183.074 28.9844 183.443C28.9844 183.812 29.2852 184.106 29.6543 184.106ZM29.1963 193H30.0986V185.638H29.1963V193ZM32.5186 193H33.4209V182.705H32.5186V193Z" fill="#C4CDD5"/>
<path d="M3.66406 232H4.75781L7.89844 223.586H6.79688L4.25781 230.883H4.16406L1.61719 223.586H0.523438L3.66406 232ZM9.82031 232H10.8516V220.234H9.82031V232ZM15.8906 232.141C17.1328 232.141 18.1406 231.555 18.6406 230.555H18.7344V232H19.7734V226.25C19.7734 224.477 18.625 223.445 16.6562 223.445C14.9141 223.445 13.6406 224.305 13.4219 225.648L13.4141 225.68H14.4531L14.4609 225.664C14.6797 224.828 15.4844 224.367 16.625 224.367C17.9844 224.367 18.7344 225.023 18.7344 226.258V227.047L16.1094 227.219C14.1641 227.352 13.0781 228.203 13.0781 229.664V229.68C13.0781 231.18 14.2656 232.141 15.8906 232.141ZM14.1328 229.664V229.648C14.1328 228.695 14.8203 228.156 16.25 228.062L18.7344 227.891V228.867C18.7344 230.203 17.5938 231.234 16.0859 231.234C14.9531 231.234 14.1328 230.625 14.1328 229.664ZM25.5 232.141C26.7969 232.141 27.8359 231.453 28.3281 230.32H28.4219V232H29.4609V220.234H28.4219V225.227H28.3281C27.8594 224.141 26.7734 223.445 25.5 223.445C23.3672 223.445 21.9453 225.18 21.9453 227.789V227.805C21.9453 230.398 23.375 232.141 25.5 232.141ZM25.7188 231.219C24.0547 231.219 23 229.883 23 227.797V227.781C23 225.703 24.0547 224.367 25.7188 224.367C27.375 224.367 28.4453 225.711 28.4453 227.781V227.797C28.4453 229.875 27.375 231.219 25.7188 231.219ZM32.1797 234.789H33.2109V230.359H33.3125C33.7734 231.445 34.8594 232.141 36.1328 232.141C38.2656 232.141 39.6953 230.406 39.6953 227.797V227.781C39.6953 225.188 38.2656 223.445 36.1328 223.445C34.8438 223.445 33.8047 224.133 33.3125 225.258H33.2109V223.586H32.1797V234.789ZM35.9219 231.219C34.2656 231.219 33.1953 229.875 33.1953 227.797V227.781C33.1953 225.711 34.2656 224.367 35.9219 224.367C37.5859 224.367 38.6406 225.703 38.6406 227.781V227.797C38.6406 229.883 37.5859 231.219 35.9219 231.219ZM45.2891 232.141C47.1484 232.141 48.375 231.125 48.7031 229.984L48.7266 229.922H47.6875L47.6562 229.977C47.3828 230.633 46.5391 231.211 45.3125 231.211C43.6406 231.211 42.5625 230.031 42.5312 228.062H48.8516V227.625C48.8516 225.133 47.4609 223.445 45.2031 223.445C42.9453 223.445 41.4766 225.18 41.4766 227.805V227.82C41.4766 230.461 42.9297 232.141 45.2891 232.141ZM45.2031 224.367C46.6484 224.367 47.6875 225.352 47.8047 227.219H42.5391C42.6719 225.398 43.75 224.367 45.2031 224.367ZM51.0703 232H52.1016V226.75C52.1016 225.391 53.0703 224.43 54.3828 224.43C54.7031 224.43 54.9766 224.461 55.2812 224.539V223.523C55.0781 223.477 54.7969 223.445 54.4922 223.445C53.3516 223.445 52.5312 224.008 52.2031 224.969H52.1016V223.586H51.0703V232ZM60.2266 232.055C60.4766 232.055 60.7109 232.031 60.9453 231.992V231.102C60.7344 231.125 60.5781 231.133 60.3438 231.133C59.3906 231.133 59.0234 230.703 59.0234 229.672V224.453H60.9453V223.586H59.0234V221.398H57.9531V223.586H56.6016V224.453H57.9531V229.906C57.9531 231.438 58.6172 232.055 60.2266 232.055ZM66.3203 232.141C68.2422 232.141 69.4141 231.117 69.7422 229.633L69.7578 229.57L68.7266 229.578L68.7109 229.617C68.4141 230.633 67.5547 231.219 66.3125 231.219C64.6484 231.219 63.5781 229.867 63.5781 227.773V227.758C63.5781 225.688 64.6406 224.367 66.3125 224.367C67.6016 224.367 68.4766 225.078 68.7266 226.047L68.7344 226.07L69.7578 226.062V226.031C69.5 224.555 68.2422 223.445 66.3125 223.445C63.9922 223.445 62.5234 225.133 62.5234 227.758V227.773C62.5234 230.438 64 232.141 66.3203 232.141ZM75.2891 232.141C77.1484 232.141 78.375 231.125 78.7031 229.984L78.7266 229.922H77.6875L77.6562 229.977C77.3828 230.633 76.5391 231.211 75.3125 231.211C73.6406 231.211 72.5625 230.031 72.5312 228.062H78.8516V227.625C78.8516 225.133 77.4609 223.445 75.2031 223.445C72.9453 223.445 71.4766 225.18 71.4766 227.805V227.82C71.4766 230.461 72.9297 232.141 75.2891 232.141ZM75.2031 224.367C76.6484 224.367 77.6875 225.352 77.8047 227.219H72.5391C72.6719 225.398 73.75 224.367 75.2031 224.367ZM83.3047 232H84.3984L87.5391 223.586H86.4375L83.8984 230.883H83.8047L81.2578 223.586H80.1641L83.3047 232ZM95.4297 233.812C96.4453 233.812 97.375 233.688 98.0312 233.469V232.695C97.5078 232.906 96.5078 233.039 95.4375 233.039C92.0312 233.039 89.7734 230.758 89.7734 227.32V227.305C89.7734 223.977 92.0938 221.57 95.2812 221.57C98.5156 221.57 100.742 223.617 100.742 226.586V226.602C100.742 228.633 100.086 229.891 99.0156 229.891C98.3047 229.891 97.9141 229.484 97.9141 228.734V224.242H97.0078V225.344H96.9062C96.6094 224.578 95.8438 224.086 94.9688 224.086C93.3672 224.086 92.2422 225.422 92.2422 227.328V227.344C92.2422 229.297 93.3516 230.633 94.9688 230.633C95.9141 230.633 96.6406 230.141 96.9922 229.25H97.0938L97.1016 229.305C97.2188 230.141 97.9141 230.688 98.8594 230.688C100.555 230.688 101.602 229.133 101.602 226.617V226.602C101.602 223.18 99.0391 220.797 95.3516 220.797C91.5625 220.797 88.9219 223.461 88.9219 227.273V227.289C88.9219 231.234 91.4922 233.812 95.4297 233.812ZM95.0938 229.781C93.9453 229.781 93.2031 228.836 93.2031 227.367V227.352C93.2031 225.891 93.9609 224.922 95.1016 224.922C96.2578 224.922 96.9922 225.852 96.9922 227.312V227.328C96.9922 228.812 96.25 229.781 95.0938 229.781ZM103.789 232H104.82V226.836C104.82 225.461 105.758 224.367 106.977 224.367C108.141 224.367 108.906 225.156 108.906 226.367V232H109.938V226.664C109.938 225.359 110.805 224.367 112.102 224.367C113.367 224.367 114.031 225.102 114.031 226.477V232H115.07V226.242C115.07 224.461 114.094 223.445 112.406 223.445C111.195 223.445 110.211 224.094 109.781 225.102H109.68C109.32 224.094 108.477 223.445 107.297 223.445C106.148 223.445 105.281 224.062 104.922 225.07H104.82V223.586H103.789V232ZM119.953 232.141C121.195 232.141 122.203 231.555 122.703 230.555H122.797V232H123.836V226.25C123.836 224.477 122.688 223.445 120.719 223.445C118.977 223.445 117.703 224.305 117.484 225.648L117.477 225.68H118.516L118.523 225.664C118.742 224.828 119.547 224.367 120.688 224.367C122.047 224.367 122.797 225.023 122.797 226.258V227.047L120.172 227.219C118.227 227.352 117.141 228.203 117.141 229.664V229.68C117.141 231.18 118.328 232.141 119.953 232.141ZM118.195 229.664V229.648C118.195 228.695 118.883 228.156 120.312 228.062L122.797 227.891V228.867C122.797 230.203 121.656 231.234 120.148 231.234C119.016 231.234 118.195 230.625 118.195 229.664ZM127 221.836C127.414 221.836 127.758 221.5 127.758 221.078C127.758 220.656 127.414 220.32 127 220.32C126.578 220.32 126.234 220.656 126.234 221.078C126.234 221.5 126.578 221.836 127 221.836ZM126.477 232H127.508V223.586H126.477V232ZM130.273 232H131.305V220.234H130.273V232ZM135.023 232.062C135.484 232.062 135.844 231.695 135.844 231.242C135.844 230.781 135.484 230.414 135.023 230.414C134.562 230.414 134.195 230.781 134.195 231.242C134.195 231.695 134.562 232.062 135.023 232.062ZM138.586 232H139.617V226.75C139.617 225.391 140.586 224.43 141.898 224.43C142.219 224.43 142.492 224.461 142.797 224.539V223.523C142.594 223.477 142.312 223.445 142.008 223.445C140.867 223.445 140.047 224.008 139.719 224.969H139.617V223.586H138.586V232ZM147.438 232.141C148.742 232.141 149.688 231.547 150.102 230.531H150.195V232H151.227V223.586H150.195V228.586C150.195 230.18 149.258 231.219 147.688 231.219C146.242 231.219 145.516 230.367 145.516 228.797V223.586H144.484V229.055C144.484 230.984 145.547 232.141 147.438 232.141Z" fill="white"/>
<path d="M1.39844 270H2.42969V266.734L3.375 265.844L6.76562 270H8.07812L4.11719 265.148L7.90625 261.586H6.625L2.53125 265.523H2.42969V258.234H1.39844V270ZM12.9062 270.141C15.2578 270.141 16.7344 268.477 16.7344 265.797V265.781C16.7344 263.102 15.2578 261.445 12.9062 261.445C10.5547 261.445 9.08594 263.102 9.08594 265.781V265.797C9.08594 268.477 10.5547 270.141 12.9062 270.141ZM12.9062 269.219C11.1719 269.219 10.1406 267.922 10.1406 265.797V265.781C10.1406 263.656 11.1719 262.367 12.9062 262.367C14.6406 262.367 15.6719 263.656 15.6719 265.781V265.797C15.6719 267.922 14.6406 269.219 12.9062 269.219ZM18.9453 270H19.9766V264.75C19.9766 263.391 20.9453 262.43 22.2578 262.43C22.5781 262.43 22.8516 262.461 23.1562 262.539V261.523C22.9531 261.477 22.6719 261.445 22.3672 261.445C21.2266 261.445 20.4062 262.008 20.0781 262.969H19.9766V261.586H18.9453V270ZM28.0469 270.141C30.3984 270.141 31.875 268.477 31.875 265.797V265.781C31.875 263.102 30.3984 261.445 28.0469 261.445C25.6953 261.445 24.2266 263.102 24.2266 265.781V265.797C24.2266 268.477 25.6953 270.141 28.0469 270.141ZM28.0469 269.219C26.3125 269.219 25.2812 267.922 25.2812 265.797V265.781C25.2812 263.656 26.3125 262.367 28.0469 262.367C29.7812 262.367 30.8125 263.656 30.8125 265.781V265.797C30.8125 267.922 29.7812 269.219 28.0469 269.219ZM38.1172 270.141C40.2422 270.141 41.6562 268.398 41.6562 265.797V265.781C41.6562 263.164 40.25 261.445 38.1172 261.445C36.8438 261.445 35.7578 262.133 35.2969 263.219H35.1953V258.234H34.1641V270H35.1953V268.32H35.2969C35.7812 269.453 36.8281 270.141 38.1172 270.141ZM37.9062 269.219C36.25 269.219 35.1797 267.867 35.1797 265.797V265.781C35.1797 263.711 36.25 262.367 37.9062 262.367C39.5625 262.367 40.6016 263.688 40.6016 265.773V265.789C40.6016 267.883 39.5625 269.219 37.9062 269.219ZM43.9453 270H44.9766V266.734L45.9219 265.844L49.3125 270H50.625L46.6641 265.148L50.4531 261.586H49.1719L45.0781 265.523H44.9766V258.234H43.9453V270ZM55.4531 270.141C57.8047 270.141 59.2812 268.477 59.2812 265.797V265.781C59.2812 263.102 57.8047 261.445 55.4531 261.445C53.1016 261.445 51.6328 263.102 51.6328 265.781V265.797C51.6328 268.477 53.1016 270.141 55.4531 270.141ZM55.4531 269.219C53.7188 269.219 52.6875 267.922 52.6875 265.797V265.781C52.6875 263.656 53.7188 262.367 55.4531 262.367C57.1875 262.367 58.2188 263.656 58.2188 265.781V265.797C58.2188 267.922 57.1875 269.219 55.4531 269.219ZM66.7656 270H67.8047V267.453H69.4922V266.492H67.8047V258.711H66.2734C63.8125 262.133 62.4609 264.242 61.1016 266.477V267.453H66.7656V270ZM62.2188 266.5V266.43C63.3516 264.562 64.4766 262.812 66.6953 259.734H66.7656V266.5H62.2188ZM74.2344 270H75.2969V258.727H74.2422L71.2266 260.812V261.945L74.1406 259.922H74.2344V270ZM82.5391 270.234C84.7656 270.234 86.4141 268.594 86.4141 266.375V266.359C86.4141 264.211 84.8281 262.602 82.7031 262.602C81.1016 262.602 79.8906 263.539 79.4922 264.672H79.3828C79.3828 264.562 79.3828 264.445 79.3828 264.336C79.4453 261.656 80.4062 259.453 82.6016 259.453C83.8828 259.453 84.8125 260.172 85.125 261.242L85.1484 261.328H86.2266L86.2031 261.227C85.8594 259.625 84.4922 258.492 82.6172 258.492C79.9609 258.492 78.3594 260.789 78.3594 264.664V264.68C78.3594 268.641 80.3594 270.234 82.5391 270.234ZM79.6797 266.305V266.297C79.6797 264.75 80.9531 263.539 82.5391 263.539C84.1484 263.539 85.3438 264.75 85.3438 266.383V266.398C85.3438 268.016 84.1016 269.281 82.5234 269.281C80.8984 269.281 79.6797 267.953 79.6797 266.305ZM94.9922 271.812C96.0078 271.812 96.9375 271.688 97.5938 271.469V270.695C97.0703 270.906 96.0703 271.039 95 271.039C91.5938 271.039 89.3359 268.758 89.3359 265.32V265.305C89.3359 261.977 91.6562 259.57 94.8438 259.57C98.0781 259.57 100.305 261.617 100.305 264.586V264.602C100.305 266.633 99.6484 267.891 98.5781 267.891C97.8672 267.891 97.4766 267.484 97.4766 266.734V262.242H96.5703V263.344H96.4688C96.1719 262.578 95.4062 262.086 94.5312 262.086C92.9297 262.086 91.8047 263.422 91.8047 265.328V265.344C91.8047 267.297 92.9141 268.633 94.5312 268.633C95.4766 268.633 96.2031 268.141 96.5547 267.25H96.6562L96.6641 267.305C96.7812 268.141 97.4766 268.688 98.4219 268.688C100.117 268.688 101.164 267.133 101.164 264.617V264.602C101.164 261.18 98.6016 258.797 94.9141 258.797C91.125 258.797 88.4844 261.461 88.4844 265.273V265.289C88.4844 269.234 91.0547 271.812 94.9922 271.812ZM94.6562 267.781C93.5078 267.781 92.7656 266.836 92.7656 265.367V265.352C92.7656 263.891 93.5234 262.922 94.6641 262.922C95.8203 262.922 96.5547 263.852 96.5547 265.312V265.328C96.5547 266.812 95.8125 267.781 94.6562 267.781ZM106.766 272.938C108.977 272.938 110.422 271.734 110.422 269.898V261.586H109.383V263.289H109.312C108.828 262.164 107.789 261.445 106.492 261.445C104.32 261.445 102.93 263.164 102.93 265.57V265.586C102.93 268 104.312 269.695 106.477 269.695C107.766 269.695 108.797 269.055 109.297 267.945H109.398V269.828C109.398 271.188 108.391 272.016 106.766 272.016C105.484 272.016 104.609 271.508 104.422 270.773L104.414 270.766H103.344L103.336 270.773C103.555 272.078 104.836 272.938 106.766 272.938ZM106.68 268.773C105 268.773 103.984 267.469 103.984 265.586V265.57C103.984 263.688 105 262.367 106.68 262.367C108.344 262.367 109.414 263.703 109.414 265.586V265.602C109.414 267.484 108.367 268.773 106.68 268.773ZM113.055 270H114.086V264.836C114.086 263.461 115.023 262.367 116.242 262.367C117.406 262.367 118.172 263.156 118.172 264.367V270H119.203V264.664C119.203 263.359 120.07 262.367 121.367 262.367C122.633 262.367 123.297 263.102 123.297 264.477V270H124.336V264.242C124.336 262.461 123.359 261.445 121.672 261.445C120.461 261.445 119.477 262.094 119.047 263.102H118.945C118.586 262.094 117.742 261.445 116.562 261.445C115.414 261.445 114.547 262.062 114.188 263.07H114.086V261.586H113.055V270ZM129.219 270.141C130.461 270.141 131.469 269.555 131.969 268.555H132.062V270H133.102V264.25C133.102 262.477 131.953 261.445 129.984 261.445C128.242 261.445 126.969 262.305 126.75 263.648L126.742 263.68H127.781L127.789 263.664C128.008 262.828 128.812 262.367 129.953 262.367C131.312 262.367 132.062 263.023 132.062 264.258V265.047L129.438 265.219C127.492 265.352 126.406 266.203 126.406 267.664V267.68C126.406 269.18 127.594 270.141 129.219 270.141ZM127.461 267.664V267.648C127.461 266.695 128.148 266.156 129.578 266.062L132.062 265.891V266.867C132.062 268.203 130.922 269.234 129.414 269.234C128.281 269.234 127.461 268.625 127.461 267.664ZM136.266 259.836C136.68 259.836 137.023 259.5 137.023 259.078C137.023 258.656 136.68 258.32 136.266 258.32C135.844 258.32 135.5 258.656 135.5 259.078C135.5 259.5 135.844 259.836 136.266 259.836ZM135.742 270H136.773V261.586H135.742V270ZM139.539 270H140.57V258.234H139.539V270ZM144.289 270.062C144.75 270.062 145.109 269.695 145.109 269.242C145.109 268.781 144.75 268.414 144.289 268.414C143.828 268.414 143.461 268.781 143.461 269.242C143.461 269.695 143.828 270.062 144.289 270.062ZM151.039 270.141C152.961 270.141 154.133 269.117 154.461 267.633L154.477 267.57L153.445 267.578L153.43 267.617C153.133 268.633 152.273 269.219 151.031 269.219C149.367 269.219 148.297 267.867 148.297 265.773V265.758C148.297 263.688 149.359 262.367 151.031 262.367C152.32 262.367 153.195 263.078 153.445 264.047L153.453 264.07L154.477 264.062V264.031C154.219 262.555 152.961 261.445 151.031 261.445C148.711 261.445 147.242 263.133 147.242 265.758V265.773C147.242 268.438 148.719 270.141 151.039 270.141ZM160.016 270.141C162.367 270.141 163.844 268.477 163.844 265.797V265.781C163.844 263.102 162.367 261.445 160.016 261.445C157.664 261.445 156.195 263.102 156.195 265.781V265.797C156.195 268.477 157.664 270.141 160.016 270.141ZM160.016 269.219C158.281 269.219 157.25 267.922 157.25 265.797V265.781C157.25 263.656 158.281 262.367 160.016 262.367C161.75 262.367 162.781 263.656 162.781 265.781V265.797C162.781 267.922 161.75 269.219 160.016 269.219ZM166.055 270H167.086V264.836C167.086 263.461 168.023 262.367 169.242 262.367C170.406 262.367 171.172 263.156 171.172 264.367V270H172.203V264.664C172.203 263.359 173.07 262.367 174.367 262.367C175.633 262.367 176.297 263.102 176.297 264.477V270H177.336V264.242C177.336 262.461 176.359 261.445 174.672 261.445C173.461 261.445 172.477 262.094 172.047 263.102H171.945C171.586 262.094 170.742 261.445 169.562 261.445C168.414 261.445 167.547 262.062 167.188 263.07H167.086V261.586H166.055V270Z" fill="white"/>
</svg>
